<?xml version="1.0" encoding="utf-8"?>
<!-- Generator: Adobe Illustrator 19.2.1, SVG Export Plug-In . SVG Version: 6.00 Build 0)  -->
<svg version="1.1" id="Layer_1" xmlns="http://www.w3.org/2000/svg" xmlns:xlink="http://www.w3.org/1999/xlink" x="0px" y="0px"
	 viewBox="0 0 2132 2443" style="enable-background:new 0 0 2132 2443;" xml:space="preserve">
<style type="text/css">
	.st0{fill:#FED0B2;}
	.st1{fill:#EDC6AE;}
	.st2{fill:#BDDEDA;}
	.st3{fill:#92CED6;}
	.st4{fill:#3C5A7B;}
	.st5{fill:#273E53;}
	.st6{fill:none;}
	.st7{fill:#122A3C;}
	.st8{fill:#304A55;}
	.st9{fill:#85B3C0;}
	.st10{fill:#FFFFFF;}
	.st11{fill:#E7E7E8;}
	.st12{fill:#45B46E;}
	.st13{fill:#A85048;}
	.st14{fill:#FFD3B4;}
	.st15{fill:#F8E1D5;}
	.st16{fill:#7B9E57;}
	.st17{fill:#E9BFA9;}
	.st18{fill:#D2B88C;}
	.st19{fill:#DDBF8F;}
	.st20{fill:#A8B2BF;}
	.st21{fill:#36516F;}
	.st22{fill:#66C6C5;}
	.st23{fill:#EEDEE9;}
	.st24{fill:#456F89;}
	.st25{fill:#081B26;}
	.st26{fill:#EFD49B;}
	.st27{fill:#101817;}
</style>
<path class="st0" d="M203.6,715.6l188.8,107.6l47.9,348.6l668.2,14.5c0,0-78.5,297.4-206.3,362.8l21.7,157.7l-607,83.5l-41.3-300.5
	c0,0-158.8-208.4-135.9-452.5C157.2,850,189.5,751.4,203.6,715.6z"/>
<polygon class="st1" points="605,1084 412.4,1287 609.1,1614.2 907.9,1632.4 995.9,1084 "/>
<path class="st0" d="M991.3,454.5c18.3,32.7,58.2,45.2,89.1,27.9l259.5-145.4c30.9-17.3,41.1-57.9,22.8-90.6l-28-50.1
	c-18.3-32.7-58.2-45.2-89.1-27.9L986.2,313.9c-30.9,17.3-41.1,57.9-22.8,90.6L991.3,454.5z"/>
<g>
	<g>
		<path class="st2" d="M609.1,1614.2H278.7c-34.8,0-63,28.2-63,63v251.5c0,34.8,28.2,63,63,63h330.3v-85.8V1614.2z"/>
		<path class="st3" d="M939.4,1614.2H609.1v291.7v85.8h330.3c34.8,0,63-28.2,63-63v-251.5C1002.4,1642.4,974.2,1614.2,939.4,1614.2z
			"/>
	</g>
	<path class="st4" d="M963.9,1779.8c0,33.8-27.4,61.2-61.1,61.2c-33.8,0-61.1-27.4-61.1-61.2c0-33.8,27.4-61.2,61.1-61.2
		C936.5,1718.6,963.9,1746,963.9,1779.8z"/>
</g>
<g>
	<path class="st5" d="M176.6,2447.4l-0.8-507.3c0-23.3,27.4-42.2,61.1-42.2H619l1,549.5H176.6z"/>
	<path class="st4" d="M619,1897.9h382.1c33.8,0,61.1,18.9,61.1,42.2l0.8,502.9H620L619,1897.9z"/>
</g>
<path class="st6" d="M872.6,1245.6c11.4,0,20.7,9.3,20.7,20.7c0,11.4-9.3,20.7-20.7,20.7c-11.4,0-20.7-9.3-20.7-20.7
	C851.9,1254.9,861.2,1245.6,872.6,1245.6z"/>
<path class="st6" d="M834,1266.3c0,28.6-23.2,51.8-51.8,51.8c-2.9,0-5.8-0.3-8.6-0.8c-24.5-4.1-43.2-25.4-43.2-51.1
	c0-25.7,18.7-46.9,43.2-51c2.8-0.5,5.7-0.8,8.6-0.8C810.9,1214.5,834,1237.7,834,1266.3z"/>
<path class="st6" d="M959.5,107.2c0,11.5-9.3,20.8-20.8,20.8H773.7H625.8c-11.5,0-20.8-9.3-20.8-20.8c0-11.5,9.3-20.8,20.8-20.8
	h147.9h165.1C950.2,86.4,959.5,95.7,959.5,107.2z"/>
<path class="st6" d="M691.9,1245.6c11.4,0,20.7,9.3,20.7,20.7c0,11.4-9.3,20.7-20.7,20.7c-11.4,0-20.7-9.3-20.7-20.7
	C671.2,1254.9,680.5,1245.6,691.9,1245.6z"/>
<g>
	<g>
		<rect x="639.6" y="1194.8" class="st7" width="268.3" height="118.3"/>
		<g>
			<ellipse class="st7" cx="746" cy="118.7" rx="225.7" ry="43.1"/>
		</g>
		<path class="st8" d="M391.9,133.7v1113.8c0,47.9,39.1,87,87,87h278.6v-31.3c-24-4-42.4-24.9-42.4-50.1c0-25.2,18.3-46,42.4-50.1
			v-29.4H471.6c-10.6,0-19.2-8.6-19.2-19.2V200.2c0-10.6,8.7-19.2,19.2-19.2h285.9v-44.9H612.3c-11.3,0-20.4-9.1-20.4-20.4
			c0-11.3,9.2-20.4,20.4-20.4h145.2V46.7H478.9C431,46.7,391.9,85.8,391.9,133.7z M656.9,1253c0-11.2,9.1-20.3,20.3-20.3
			c11.2,0,20.3,9.1,20.3,20.3c0,11.2-9.1,20.3-20.3,20.3C666,1273.4,656.9,1264.3,656.9,1253z"/>
		<path class="st9" d="M757.5,1303.1v31.3H1053c47.8,0,87-39.1,87-86.9V133.7c0-47.8-39.1-87-87-87H757.5v48.5h162.1
			c11.3,0,20.4,9.1,20.4,20.4c0,11.3-9.2,20.4-20.4,20.4H757.5V181h301.7c10.6,0,19.2,8.7,19.2,19.2v954.1
			c0,10.6-8.7,19.2-19.2,19.2H757.5v29.4c2.8-0.5,5.6-0.8,8.4-0.8c28.1,0,50.8,22.8,50.8,50.8c0,28.1-22.7,50.9-50.8,50.9
			C763.1,1303.9,760.3,1303.6,757.5,1303.1z M834.4,1253c0-11.2,9.1-20.3,20.3-20.3c11.2,0,20.3,9.1,20.3,20.3
			c0,11.2-9.1,20.3-20.3,20.3C843.5,1273.4,834.4,1264.3,834.4,1253z"/>
		<path class="st10" d="M471.6,181h285.9h301.7c10.6,0,19.2,8.7,19.2,19.2v101.2v852.9c0,3.2-0.9,6.2-2.2,8.8L459,185.9
			C462.4,182.9,466.8,181,471.6,181z"/>
	</g>
	<path class="st11" d="M459,185.9l617.2,977.2c-3.2,6.2-9.6,10.4-17,10.4H757.5H471.6c-10.6,0-19.2-8.6-19.2-19.2V301.5V200.2
		C452.4,194.5,455,189.4,459,185.9z"/>
</g>
<path class="st0" d="M210.5,699.7l87.9-355.2c0,0,156.7,34.9,146.9,153.5c-9.8,118.6-57.5,292.4-57.5,292.4l4.5,32.9L203.6,715.6
	C207.9,704.7,210.5,699.7,210.5,699.7z"/>
<g>
	<path class="st12" d="M550.1,757.8c14.1-14.1,32.9-21.9,52.9-21.9c20,0,38.8,7.8,52.9,21.9c14.1,14.1,21.9,32.9,21.9,52.9
		s-7.8,38.8-21.9,52.9c-14.1,14.1-32.9,21.9-52.9,21.9c-20,0-38.8-7.8-52.9-21.9c-14.1-14.1-21.9-32.9-21.9-52.9
		S536,772,550.1,757.8 M543,750.6c-33.2,33.2-33.2,87,0,120.2c33.2,33.2,87,33.2,120.2,0c33.2-33.2,33.2-87,0-120.2
		C629.9,717.4,576.1,717.4,543,750.6L543,750.6z"/>
	<path class="st12" d="M632.7,829.6c-2.1-3-6.3-3.6-9.3-1.5l-3.6,2.6c-1.5,1.1-2.4,2.7-2.7,4.4l-31.9-44.2c1.8,0.5,3.9,0.2,5.6-1
		l3.6-2.6c3-2.1,3.6-6.3,1.5-9.2l-12.1-16.7c-1.8-2.6-5.2-3.4-8-2.2c-0.4,0.2-0.9,0.4-1.3,0.7l-3.6,2.6c-2.1,1.5-3,3.9-2.7,6.2
		c-0.3,0.2-0.6,0.5-0.9,0.7c-8.3,7.1-9.9,19.5-3.4,28.5l40.5,55.9c5,6.9,13.4,9.9,21.3,8.5c1.1-0.2,3.7-0.8,6.4-2.3
		c0.2-0.1,0.5-0.3,0.7-0.4c0,0,0.1,0,0.1-0.1c0.3-0.2,0.7-0.4,1-0.6c1.9,0.6,4,0.3,5.7-1l0.4-0.3l3.2-2.3c1.4-1,2.3-2.6,2.6-4.2
		c0.3-1.7,0-3.5-1.1-5L632.7,829.6z"/>
</g>
<g>
	<path class="st13" d="M1022.8,816.2c2.9,19.8-2,39.5-14,55.5c-11.9,16-29.4,26.5-49.1,29.4c-19.8,2.9-39.5-2-55.5-14
		c-16-11.9-26.5-29.4-29.4-49.1c-2.9-19.8,2-39.5,14-55.5c11.9-16,29.4-26.5,49.1-29.4c19.8-2.9,39.5,2,55.5,14
		C1009.4,779,1019.8,796.4,1022.8,816.2 M1032.8,814.7c-6.8-46.4-50-78.5-96.5-71.7c-46.4,6.8-78.5,50-71.7,96.5
		c6.8,46.4,50,78.5,96.5,71.7C1007.6,904.3,1039.7,861.1,1032.8,814.7L1032.8,814.7z"/>
	<path class="st13" d="M915.9,839.7c3.7,0,6.7-2.9,6.7-6.5l0.1-4.4c0-1.9-0.7-3.6-1.9-4.8l54.5,0.7c-1.5,1.2-2.5,3-2.5,5.1l-0.1,4.4
		c-0.1,3.7,2.9,6.7,6.5,6.7l20.6,0.3c3.2,0,5.8-2.1,6.5-5.1c0.1-0.5,0.2-1,0.2-1.5l0.1-4.4c0-2.5-1.3-4.7-3.4-5.9
		c0-0.4,0-0.8-0.1-1.1c-0.7-10.9-9.7-19.6-20.9-19.8l-69-0.9c-8.5-0.1-16,4.8-19.5,12c-0.5,1-1.5,3.4-2,6.5c0,0.3-0.1,0.5-0.1,0.8
		c0,0,0,0.1,0,0.1c0,0.4-0.1,0.8-0.1,1.2c-1.6,1.2-2.6,3.1-2.6,5.2l0,0.5l-0.1,3.9c0,1.8,0.6,3.4,1.8,4.6c1.2,1.3,2.9,2.1,4.7,2.1
		L915.9,839.7z"/>
</g>
<path class="st0" d="M1030.6,1145.3c16.1,26.7,46.2,38.2,67.1,25.5l175.6-106.2c20.9-12.6,24.8-44.6,8.6-71.3l-24.7-40.9
	c-16.1-26.7-46.2-38.2-67.1-25.5l-175.6,106.2c-20.9,12.6-24.8,44.6-8.6,71.3L1030.6,1145.3z"/>
<g>
	<g>
		<g>
			<path class="st14" d="M1667.5,2029.8c42.7-90.2,48.9-195.3,25.2-294.3l-99.6-414.8c-20.5-85.3-142.5-101.8-186.4-39.4
				c16.3,73.4,34.3,156.1,34.3,156.1s-30.9-88-55.3-160.8c-49.6-49.5-147.7-45.4-178.9,18.1c18.8,81,41.7,181.5,41.7,181.5
				s-0.1-0.3-0.3-0.8c-3.7-10.5-43.9-124.3-67.3-196.8c-43.8-47.5-130.4-49.8-170.4-2.4c4.6,20.9,9.8,45.7,14.9,71
				c12.8,62.6,25.7,128.5,29.3,147.4c0.1,0.3,0.1,0.6,0.2,0.9c0.2,1.1,0.4,2,0.5,2.7c0.1,0.6,0.2,1,0.3,1.3c0.1,0.3,0.1,0.4,0.1,0.4
				s-43.1-141.7-58.5-202.5l-95.1-392.6c-27.1-120.5-235.1-94.8-197.8,50.8l133.1,539.7l0,0l0,0c-53.9-38-109.3-30-151.9-14.8
				c-0.1,0-0.1,0-0.2,0.1c-1,0.4-2,0.7-3,1.1c-0.2,0.1-0.4,0.1-0.5,0.2c-0.8,0.3-1.7,0.6-2.5,0.9c-0.2,0.1-0.3,0.1-0.5,0.2
				c0,0,57.6,85.3,53.3,104.1c-2.3,10.1-13.3,21-23.1,29l130.7,271.7c18.6,38.7,112.6,175,181.1,227.5
				c21.1,25.7,46.8,49.9,76.1,70.8l573.3-139.6L1667.5,2029.8z"/>
		</g>
		<g>
			<path class="st15" d="M732.2,1587.2c4.3-18.8-53.3-104.1-53.3-104.1c-5.3,2-9.5,3.7-12.9,5.3c-5.3,2.3-10.4,4.7-15.1,6.9
				l58.2,120.9C718.9,1608.2,729.9,1597.2,732.2,1587.2z"/>
			<g>
				<path class="st14" d="M1200.7,1310.6c0.4-1.4,0.8-2.8,1.3-4.2C1201.6,1307.8,1201.1,1309.2,1200.7,1310.6z"/>
				<path class="st14" d="M1199,1306.3c0.6,1.4,1.2,2.8,1.7,4.3C1200.2,1309.2,1199.6,1307.7,1199,1306.3z"/>
				<path class="st14" d="M1203.5,1302.3c1-2.6,2.1-5.2,3.3-7.7C1205.6,1297.1,1204.5,1299.6,1203.5,1302.3z"/>
				<path class="st14" d="M1385.7,1276.5c2.6,2.5,5,5.2,7.3,8.1C1390.7,1281.7,1388.3,1279.1,1385.7,1276.5z"/>
				<path class="st14" d="M1393.2,1284.9c1,1.2,1.9,2.4,2.8,3.7C1395.1,1287.3,1394.2,1286,1393.2,1284.9z"/>
				<path class="st14" d="M998.4,1295c1.6-3.5,3.5-6.8,5.5-10C1001.9,1288.2,1000,1291.5,998.4,1295z"/>
				<path class="st14" d="M1189.7,1289.5c0.8,1.2,1.6,2.3,2.3,3.5C1191.3,1291.8,1190.5,1290.6,1189.7,1289.5z"/>
				<path class="st14" d="M1197.1,1302.1c0.5,1,0.9,1.9,1.4,2.9C1198,1304.1,1197.6,1303.1,1197.1,1302.1z"/>
				<path class="st14" d="M1195,1298c0.5,0.9,1,1.9,1.5,2.8C1196,1299.9,1195.5,1298.9,1195,1298z"/>
				<path class="st14" d="M1192.5,1293.8c0.6,1,1.2,2,1.8,3C1193.7,1295.8,1193.2,1294.8,1192.5,1293.8z"/>
				<path class="st14" d="M1202.1,1306.1c0.4-1.3,0.9-2.6,1.3-3.8C1203,1303.6,1202.5,1304.8,1202.1,1306.1z"/>
				<path class="st14" d="M1406.6,1281.3c-1.3,1.9-2.6,3.9-3.8,5.9C1404,1285.2,1405.3,1283.2,1406.6,1281.3z"/>
				<path class="st14" d="M998.4,1295c-0.4,0.8-0.7,1.5-1,2.3C997.6,1298.2,998,1297.3,998.4,1295z"/>
				<path class="st14" d="M1401.1,1290.4c0.6-1.1,1.1-2.1,1.7-3.1C1402.3,1288.3,1401.7,1289.3,1401.1,1290.4z"/>
				<path class="st14" d="M1396.7,1289.5c1,1.4,1.9,2.8,2.8,4.2C1398.6,1292.2,1397.7,1290.8,1396.7,1289.5z"/>
				<path class="st16" d="M1396,1288.5c0.2,0.3,0.5,0.6,0.7,1C1396.5,1289.1,1396.2,1288.8,1396,1288.5z"/>
				<path class="st16" d="M1194.3,1296.8c0.2,0.4,0.4,0.8,0.6,1.1C1194.7,1297.6,1194.5,1297.2,1194.3,1296.8z"/>
				<path class="st16" d="M1192.1,1293c0.2,0.3,0.3,0.5,0.5,0.8C1192.4,1293.6,1192.2,1293.3,1192.1,1293z"/>
				<path class="st16" d="M1196.4,1300.8c0.2,0.4,0.4,0.9,0.7,1.3C1196.9,1301.7,1196.7,1301.3,1196.4,1300.8z"/>
				<path class="st16" d="M1198.5,1305.1c0.2,0.4,0.4,0.8,0.6,1.3C1198.8,1305.9,1198.6,1305.5,1198.5,1305.1z"/>
				<path class="st16" d="M998.4,1295C998.4,1295,998.4,1295,998.4,1295C998.4,1295,998.4,1295,998.4,1295
					C998.4,1295,998.4,1295,998.4,1295z"/>
				<path class="st16" d="M1189.6,1289.3c0,0,0.1,0.1,0.1,0.1C1189.7,1289.4,1189.7,1289.4,1189.6,1289.3z"/>
				<path class="st16" d="M1003.9,1285C1003.9,1285,1003.9,1285,1003.9,1285C1003.9,1285,1003.9,1285,1003.9,1285z"/>
				<path class="st16" d="M1202,1306.4c0-0.1,0.1-0.2,0.1-0.3C1202.1,1306.2,1202,1306.3,1202,1306.4z"/>
				<polygon class="st16" points="1385.7,1276.5 1385.7,1276.5 1385.7,1276.5 				"/>
				<path class="st16" d="M1402.9,1287.2C1402.9,1287.2,1402.9,1287.2,1402.9,1287.2C1402.9,1287.2,1402.9,1287.2,1402.9,1287.2z"/>
				<path class="st16" d="M1399.5,1293.6c0.5-1.1,1.1-2.2,1.6-3.3C1400.6,1291.4,1400,1292.5,1399.5,1293.6z"/>
				<path class="st16" d="M1206.8,1294.6C1206.8,1294.6,1206.8,1294.6,1206.8,1294.6C1206.8,1294.6,1206.8,1294.6,1206.8,1294.6
					C1206.8,1294.6,1206.8,1294.6,1206.8,1294.6z"/>
				<path class="st16" d="M1203.4,1302.3C1203.5,1302.3,1203.5,1302.3,1203.4,1302.3C1203.5,1302.3,1203.5,1302.3,1203.4,1302.3z"/>
				<path class="st16" d="M1393,1284.6c0.1,0.1,0.2,0.2,0.2,0.3C1393.1,1284.8,1393.1,1284.7,1393,1284.6z"/>
				<path class="st16" d="M1406.7,1281.2C1406.7,1281.3,1406.7,1281.3,1406.7,1281.2C1406.7,1281.3,1406.7,1281.3,1406.7,1281.2
					L1406.7,1281.2z"/>
				<g>
					<path class="st14" d="M1010.5,1276.1C1010.5,1276.1,1010.5,1276,1010.5,1276.1C1010.5,1276,1010.5,1276.1,1010.5,1276.1
						L1010.5,1276.1z"/>
					<path class="st14" d="M1010.5,1276c-0.1,0.1-0.2,0.2-0.3,0.3c0,0,0,0,0,0C1010.4,1276.3,1010.4,1276.1,1010.5,1276z"/>
					<path class="st14" d="M1183.3,1281.1c2.3,2.6,4.4,5.4,6.4,8.3C1187.7,1286.5,1185.5,1283.7,1183.3,1281.1z"/>
					<polygon class="st14" points="1180.9,1278.5 1180.9,1278.5 1180.9,1278.5 					"/>
					<path class="st17" d="M1180.9,1278.5c23.4,72.5,63.6,186.3,67.3,196.8c0.2,0.5,0.3,0.8,0.3,0.8s-22.9-100.5-41.7-181.5
						c0,0,0,0,0,0c-1.2,2.5-2.3,5-3.3,7.7c0,0,0,0,0,0.1c-0.5,1.3-0.9,2.5-1.3,3.8c0,0.1-0.1,0.2-0.1,0.3c-0.4,1.4-0.9,2.8-1.3,4.2
						c-0.5-1.4-1.1-2.9-1.7-4.3c-0.2-0.4-0.4-0.8-0.6-1.3c-0.4-1-0.9-2-1.4-2.9c-0.2-0.4-0.4-0.9-0.7-1.3c-0.5-1-1-1.9-1.5-2.8
						c-0.2-0.4-0.4-0.8-0.6-1.1c-0.6-1-1.2-2-1.8-3c-0.2-0.3-0.3-0.5-0.5-0.8c-0.8-1.2-1.5-2.4-2.3-3.5c0,0-0.1-0.1-0.1-0.1
						C1187,1285.5,1184.1,1281.9,1180.9,1278.5C1181,1278.5,1181,1278.5,1180.9,1278.5z"/>
					<path class="st16" d="M1183.3,1281.1c-0.8-0.9-1.5-1.7-2.3-2.6c0,0,0,0,0,0C1181.7,1279.3,1182.5,1280.2,1183.3,1281.1z"/>
					<path class="st16" d="M1189.6,1289.3c-2-2.9-4.1-5.7-6.4-8.3c-0.7-0.9-1.5-1.7-2.3-2.6
						C1184.1,1281.9,1187,1285.5,1189.6,1289.3z"/>
					<path class="st16" d="M1181,1278.5C1181,1278.5,1181,1278.5,1181,1278.5C1180.9,1278.5,1180.9,1278.5,1181,1278.5
						C1181,1278.5,1181,1278.5,1181,1278.5z"/>
					<path class="st17" d="M1055.8,1499.4c-0.1-0.3-0.1-0.7-0.3-1.3c-0.1-0.7-0.3-1.6-0.5-2.7c-0.1-0.3-0.1-0.6-0.2-0.9
						c-3.7-18.9-16.5-84.7-29.3-147.4c-5.2-25.3-10.4-50.1-14.9-71c-0.1,0.1-0.2,0.2-0.3,0.3c-1,1.2-2,2.4-2.9,3.7
						c-0.2,0.2-0.4,0.5-0.5,0.8c-1,1.3-1.9,2.7-2.9,4.1c0,0,0,0,0,0c-2,3.2-3.9,6.5-5.5,10c0,0,0,0,0,0c-0.4,2.2-0.8,3.2-1,2.3
						c15.4,60.8,58.5,202.5,58.5,202.5S1055.8,1499.6,1055.8,1499.4z"/>
					<path class="st16" d="M1006.8,1280.8c0.2-0.3,0.4-0.5,0.5-0.8C1007.1,1280.3,1007,1280.6,1006.8,1280.8z"/>
					<path class="st16" d="M1010.5,1276.1C1010.5,1276.1,1010.5,1276,1010.5,1276.1c-0.1,0.1-0.2,0.2-0.3,0.3
						C1010.4,1276.3,1010.4,1276.2,1010.5,1276.1z"/>
					<path class="st16" d="M1025.5,1347.1c12.8,62.6,25.7,128.5,29.3,147.4C1051.1,1475.5,1038.3,1409.7,1025.5,1347.1z"/>
					<path class="st16" d="M1055,1495.4c0.2,1.1,0.4,2,0.5,2.7C1055.4,1497.4,1055.2,1496.5,1055,1495.4z"/>
					<path class="st17" d="M1406.7,1281.2C1406.7,1281.3,1406.7,1281.3,1406.7,1281.2c-1.4,2-2.7,3.9-3.8,6c0,0,0,0,0,0
						c-0.6,1-1.2,2.1-1.7,3.1c-0.6,1.1-1.1,2.2-1.6,3.3c-0.9-1.4-1.8-2.8-2.8-4.2c-0.2-0.3-0.5-0.6-0.7-1c-0.9-1.2-1.8-2.5-2.8-3.7
						c-0.1-0.1-0.1-0.2-0.2-0.3c-2.3-2.8-4.7-5.5-7.3-8.1c0,0,0,0,0,0c24.4,72.8,55.3,160.8,55.3,160.8S1423,1354.6,1406.7,1281.2z"
						/>
					<path class="st17" d="M837.5,1495.3c-11.2-7.9-22.4-13.7-33.6-18l109.5,326.2L837.5,1495.3z"/>
				</g>
				<polygon class="st16" points="837.5,1495.3 837.5,1495.3 913.4,1803.6 913.4,1803.6 				"/>
			</g>
			<path class="st15" d="M707.1,907.3c0,0,11.4-49.9,73.6-65c62.2-15.2,89,23.8,89,23.8s56.6,110.2-51.5,136.5
				C710,1029,707.1,907.3,707.1,907.3z"/>
		</g>
	</g>
	<path class="st2" d="M1399.2,2080.3l317.4-77.3c33.4-8.1,67.1,12.4,75.3,45.8l58.8,241.6c8.1,33.4-12.3,67.2-45.8,75.3l-317.4,77.3
		l-20.1-82.5L1399.2,2080.3z"/>
	<g>
		<path class="st3" d="M1467.5,2360.5l-68.3-280.3l-317.4,77.3c-33.4,8.1-53.9,41.9-45.8,75.3l51.2,210.2h400.3L1467.5,2360.5z"/>
	</g>
	<g>
		<path class="st5" d="M1928.3,2443l-36.5-151c-5.5-22.4-36.2-34.2-68.6-26.3l-367.1,89.4l21.2,87.9H1928.3z"/>
		<polygon class="st4" points="1456,2355.1 1095.1,2443 1477.2,2443 		"/>
	</g>
	<path class="st4" d="M1097,2322.4c7.9,32.5,40.6,52.4,73.1,44.5c32.4-7.9,52.3-40.6,44.4-73.1c-7.9-32.5-40.6-52.4-73-44.5
		C1109,2257.2,1089.1,2289.9,1097,2322.4z"/>
</g>
<path class="st0" d="M1022.5,926.9c16.1,26.7,46.2,38.2,67.1,25.5l175.6-106.2c20.9-12.6,24.8-44.6,8.6-71.3l-24.7-40.9
	c-16.1-26.7-46.2-38.2-67.1-25.5l-175.6,106.2c-20.9,12.6-24.8,44.6-8.6,71.3L1022.5,926.9z"/>
<path class="st0" d="M995.5,728c18.3,30.3,52.4,43.3,76.1,28.9l199.3-120.5c23.7-14.3,28.1-50.6,9.8-80.9l-28-46.4
	c-18.3-30.3-52.4-43.3-76.1-28.9L977.3,600.7c-23.7,14.3-28.1,50.6-9.8,80.9L995.5,728z"/>
<g>
	<g>
		<g>
			<ellipse class="st11" cx="757.5" cy="427.4" rx="164.6" ry="164.6"/>
			<path class="st9" d="M757.5,262.8c90.9,0,164.6,73.7,164.6,164.6c0,90.9-73.7,164.6-164.6,164.6c-90.9,0-164.6-73.7-164.6-164.6
				C592.9,336.5,666.6,262.8,757.5,262.8 M757.5,247.2c-24.3,0-47.9,4.8-70.2,14.2c-21.5,9.1-40.7,22.1-57.3,38.6
				c-16.5,16.5-29.5,35.8-38.6,57.3c-9.4,22.2-14.2,45.8-14.2,70.2c0,24.3,4.8,47.9,14.2,70.2c9.1,21.5,22.1,40.7,38.6,57.3
				c16.5,16.5,35.8,29.5,57.3,38.6c22.2,9.4,45.8,14.2,70.2,14.2c24.3,0,47.9-4.8,70.2-14.2c21.5-9.1,40.7-22.1,57.3-38.6
				c16.5-16.6,29.5-35.8,38.6-57.3c9.4-22.2,14.2-45.8,14.2-70.2c0-24.3-4.8-47.9-14.2-70.2c-9.1-21.5-22.1-40.7-38.6-57.3
				c-16.5-16.5-35.8-29.5-57.3-38.6C805.4,251.9,781.8,247.2,757.5,247.2L757.5,247.2z"/>
		</g>
	</g>
	<g>
		<path class="st18" d="M781.6,417.6h-40.8v9.6h-0.1c-1.5,3.3-3.4,6.2-5.8,8.8c6.9-2,40.4-11.8,46.8-16.6V417.6z"/>
		<path class="st19" d="M781.6,430.5v-11c-6.3,4.8-39.9,14.6-46.8,16.6c-2.7,3-5.9,5.4-9.6,7.2c4,5.7,9.3,10.4,15.5,13.6v9h0.1v0.6
			h38.8v-0.6h2v-9.8c5.6-3.2,10.4-7.6,14-12.8C789.8,440.4,784.9,436,781.6,430.5z"/>
	</g>
	<path class="st20" d="M789.6,450.2c-7.7,7.1-17.9,11.5-29.2,11.5c-10.4,0-19.8-3.7-27.2-9.8l28.4,125.6L789.6,450.2z"/>
	<polygon class="st21" points="748.2,457.2 770.7,457.2 783.1,468 769.2,482.5 750,482.5 737.8,468.6 	"/>
	<polygon class="st21" points="743.9,577.4 750,482.5 769.2,482.5 779.6,586.1 	"/>
	<polygon class="st22" points="690.3,548.3 696,551.7 706.9,513.6 699.6,510.3 	"/>
	<polyline class="st23" points="739.3,478.2 723.4,444.6 730.5,440.4 760.8,456.7 	"/>
	<polygon class="st23" points="791.2,440.4 760.9,456.7 782.4,478.2 798.4,444.6 	"/>
	<polygon class="st24" points="761.6,577.4 733.1,451.9 730.5,440.4 725.3,443.5 723.4,444.6 715.5,477.1 726.3,479.8 719.1,493.4 	
		"/>
	<polygon class="st24" points="806.8,477.1 798.9,444.6 798.8,444.6 791.7,440.4 789.6,450.2 761.6,577.4 803.2,493.4 796,479.8 	
		"/>
	<g>
		<path class="st25" d="M719.1,493.4l7.2-13.6l-10.9-2.7l7.9-32.5l2-1.2c0,0-0.1-0.1-0.1-0.1c-4,2-8.5,3.3-13.3,3.5v0h-18.8l0,0.1
			c-7.6-1.4-16.3,4.4-20.2,11.7c0,0.1-0.1,0.1-0.1,0.2c-0.7,1.4-1.3,2.8-1.6,4.3l-0.6,2.5l-19.1,60.1l-4.8,23.5
			c11.4,10.4,24.3,19.2,38.3,26l6.7-29.5l-0.5,32.3c20.3,8.9,42.6,13.9,66.2,13.9c1.2,0,2.4,0,3.6,0v-15.5L719.1,493.4z"/>
		<path class="st25" d="M874.1,543.6l-21.4-62.5l0,0l-7.2-22.5c0,0-5-8.9-14-11.2l-2.4-0.5c-1.4-0.2-2.7-0.2-4.1,0l-16.7-0.4
			c-3.3-0.2-6.5-0.8-9.5-1.9l0.1,0.1l7.9,32.5l-10.9,2.7l7.2,13.6l-41.6,84l-0.5-1V592c24.3-0.5,47.4-6.3,68-16.3l0-32.6l3.6,11.4
			l5.4,16.4C851.4,563.5,863.5,554.3,874.1,543.6z"/>
	</g>
	<g>
		<path class="st19" d="M759.6,304.9c-27.7,0.9-50.8,17.7-50.8,53.4c0,36.3,22.6,65.7,50.8,66.5c0.4,0,0.8,0,1.2,0h0v-120
			C760.4,304.9,760,304.9,759.6,304.9z"/>
		<path class="st26" d="M812.8,358.4c0-36.8-22.1-53.5-50.8-53.5c-0.4,0-0.8,0-1.2,0v120C789.6,424.9,812.8,395.1,812.8,358.4z"/>
	</g>
	<path class="st26" d="M808.2,362.5c-1.1,7.7,1,14.3,4.8,14.9c3.8,0.6,7.7-5.2,8.8-12.9c1.1-7.7-1-14.3-4.8-14.9
		C813.3,349.1,809.3,354.9,808.2,362.5z"/>
	<path class="st19" d="M713,361.9c0.7,7.6-1.5,14-4.9,14.3c-3.5,0.3-6.8-5.5-7.6-13.1c-0.7-7.6,1.5-14,4.9-14.3
		C708.9,348.5,712.3,354.3,713,361.9z"/>
	<g>
		<path class="st27" d="M708.7,353.6v-13c0,0-2.3-44.2,52.1-44.2v27.2c0,0-12.5,0.8-21.2-6.8c-8.7-7.6-17.8,8.3-18.1,16.6
			c-0.4,8.3-4.5,6.2-5.3,11.5c-0.8,5.3-0.8,17.4-0.8,18.5S712.1,354.4,708.7,353.6z"/>
		<path class="st27" d="M813,353.6v-13c0,0,2.3-44.2-52.1-44.2v27.2c0,0,12.5,0.8,21.2-6.8c8.7-7.6,17.8,8.3,18.1,16.6
			c0.4,8.3,4.5,6.2,5.3,11.5c0.8,5.3,0.8,17.4,0.8,18.5S809.6,354.4,813,353.6z"/>
	</g>
</g>
</svg>
