<?xml version="1.0" encoding="utf-8"?>
<!-- Generator: Adobe Illustrator 19.2.1, SVG Export Plug-In . SVG Version: 6.00 Build 0)  -->
<svg version="1.1" xmlns="http://www.w3.org/2000/svg" xmlns:xlink="http://www.w3.org/1999/xlink" x="0px" y="0px"
	 viewBox="0 0 544 538" style="enable-background:new 0 0 544 538;" xml:space="preserve">
<style type="text/css">
	.st0{fill:none;}
	.st1{fill:#509ED8;}
	.st2{fill:#FFFFFF;}
	.st3{fill:#0F7588;}
	.st4{fill:#EE795F;}
	.st5{fill:#73C386;}
	.st6{fill:#F6EAB1;}
	.st7{fill:#FFEBCF;}
</style>
<g id="Слой_4">
	<g>
		<path class="st0" d="M212.7,31.2c-5.4,0-10,3.7-11.3,8.7H224C222.6,34.9,218.1,31.2,212.7,31.2z"/>
		<path class="st1" d="M373.7,39.8H254.2C257.2,46,259,53,259,60.4h18.7c12.3,0,22.5,9.2,24,21.1h68v417.2H55.7V81.5h68
			c1.5-11.9,11.7-21.1,24-21.1h18.7c0-7.4,1.7-14.4,4.8-20.6H51.7c-9.7,0-17.5,7.8-17.5,17.5v442.6c0,9.7,7.8,17.5,17.5,17.5h322
			c9.7,0,17.5-7.8,17.5-17.5V57.3C391.1,47.7,383.3,39.8,373.7,39.8z"/>
		<path class="st2" d="M301.8,95.1H123.5V84.6c0-1,0.1-2,0.2-3h-68v417.2h313.9V81.5h-68c0.1,1,0.2,2,0.2,3V95.1z M275.7,123.5h17.7
			v5.2h-6V160h-5.7v-31.3h-6V123.5z M256.8,132.3c0-5.8,2.9-9.2,8.6-9.2c5.6,0,8.5,3.3,8.5,9.2v3.5h-5.4v-3.9c0-2.6-1.1-3.6-3-3.6
			c-1.8,0-3,1-3,3.6v19.7c0,2.6,1.1,3.5,3,3.5c1.8,0,3-0.9,3-3.5v-5.2h5.4v4.8c0,5.8-2.9,9.2-8.5,9.2c-5.6,0-8.6-3.3-8.6-9.2V132.3z
			 M240.4,123.5h8.4l5.8,36.5h-5.8l-1-6.6h-7l-1,6.6h-5.3L240.4,123.5z M215.1,123.5h8.7c5.9,0,8.5,2.8,8.5,8.4v2.9
			c0,3.8-1.2,6.2-3.8,7.4v0.1c2.9,1.2,3.8,3.9,3.8,7.7v5.6c0,1.8,0.1,3.1,0.6,4.4h-5.8c-0.3-0.9-0.5-1.5-0.5-4.5v-5.7
			c0-3.4-1.1-4.6-3.7-4.6h-2V160h-5.7V123.5z M194.9,123.5h17.7v5.2h-6V160h-5.7v-31.3h-6V123.5z M174.3,123.5h7.2l5.8,21.8h0.1
			v-21.8h5.1V160h-5.9l-7-26.4h-0.1V160h-5.2V123.5z M153.2,132.3c0-5.8,3.1-9.2,8.7-9.2c5.6,0,8.7,3.3,8.7,9.2v19
			c0,5.8-3.1,9.2-8.7,9.2c-5.6,0-8.7-3.3-8.7-9.2v-15.4V132.3z M133.1,132.3c0-5.8,2.9-9.2,8.6-9.2c5.6,0,8.6,3.3,8.6,9.2v3.5h-5.4
			v-3.9c0-2.6-1.1-3.6-3-3.6c-1.8,0-3,1-3,3.6v19.7c0,2.6,1.1,3.5,3,3.5c1.8,0,3-0.9,3-3.5v-5.2h5.4v4.8c0,5.8-2.9,9.2-8.6,9.2
			c-5.6,0-8.6-3.3-8.6-9.2V132.3z M76.8,196.9h245.1v8.1H76.8V196.9z M76.8,212.5h255.8v8.1H76.8V212.5z M76.8,228h167v8.1h-167V228
			z M76.8,259.1h255.8v8.1H76.8V259.1z M76.8,274.7h230.7v8.1H76.8V274.7z M76.8,290.2h167v8.1h-167V290.2z M76.8,305.8h205.1v8.1
			H76.8V305.8z M76.8,321.3h250.3v8.1H76.8V321.3z M76.8,352.4h233.4v8.1H76.8V352.4z M76.8,367.9h169.1v8.1H76.8V367.9z
			 M76.8,383.5h218.9v8.1H76.8V383.5z M76.8,399h205.1v8.1H76.8V399z M340.6,461.6c-7-0.3-13.9-0.6-20.9-0.9
			c-4.3-0.2-11.2,0.8-14.8-1.8c-2.8-2.1-2.7-3.4-6.4-1.7c-2.7,1.3-5.2,4.4-8.3,2.4c-0.4-0.3-0.2-4.3-0.1-5.7c0-0.2,0-0.3,0.1-0.4
			c0.5-2.7,1.1-5.4,1.6-8c-4.4,7.7-9.2,15.3-14.6,22.3c-1.5,2-5.2,7-7.3,2.7c-0.4-0.9-0.1-3.1-0.1-4.1c0-0.4,0-0.7,0-1.1
			c0-0.2,0-0.3,0-0.4c0-0.6,0-1.2,0-1.8c0,0.2,0,0.4,0.1,0.6c0.3-4.5,1.6-8.7,3.3-13.1c2.2-5.6,4.5-11.2,6.8-16.8
			c-9.7,14-19.4,28-29.2,42c0.9-1.3-1-4.7,0-6.1c11.7-16.9,23.5-33.8,35.2-50.7c0,1.2,0,2.4,0,3.6c0.2,0.9,0.3,1.9,0,2.5
			c-3.1,7.7-6.2,15.4-9.4,23.1c-2.3,5.6-5,11.2-6.3,17.2c2.3,3.6,10.4-8.7,11.5-10.3c4.2-6.1,8.1-12.5,11.7-19c0,1.5,0,2.9,0,4.4
			c0.1,0.6,0.1,1.2,0,1.7c-0.8,4-1.6,7.9-2.4,11.9c2.6,0.7,4.9-1.8,7.2-2.9c3.8-1.8,3.5-0.4,6.4,1.7c3.8,2.7,10.3,1.6,14.8,1.8
			c7,0.3,13.9,0.6,20.9,0.9C340.7,455.5,340.6,461.6,340.6,461.6z M355,189.5H76.8v-8.1H355V189.5z"/>
		<rect x="76.8" y="181.4" class="st3" width="278.1" height="8.1"/>
		<rect x="76.8" y="259.1" class="st3" width="255.8" height="8.1"/>
		<rect x="76.8" y="212.5" class="st3" width="255.8" height="8.1"/>
		<rect x="76.8" y="321.3" class="st3" width="250.3" height="8.1"/>
		<rect x="76.8" y="196.9" class="st3" width="245.1" height="8.1"/>
		<rect x="76.8" y="352.4" class="st3" width="233.4" height="8.1"/>
		<rect x="76.8" y="274.7" class="st3" width="230.7" height="8.1"/>
		<path class="st4" d="M147.7,60.4c-12.3,0-22.5,9.2-24,21.1c-0.1,1-0.2,2-0.2,3v10.6h178.2V84.6c0-1-0.1-2-0.2-3
			c-1.5-11.9-11.6-21.1-24-21.1H259c0-7.4-1.7-14.4-4.8-20.6c-7.6-15.3-23.3-25.7-41.5-25.7s-33.9,10.5-41.5,25.7
			c-3.1,6.2-4.8,13.2-4.8,20.6H147.7z M212.7,31.2c5.4,0,10,3.7,11.3,8.7c0.3,1,0.4,2,0.4,3.1c0,6.5-5.2,11.7-11.7,11.7
			c-6.5,0-11.7-5.2-11.7-11.7c0-1.1,0.1-2.1,0.4-3.1C202.7,34.9,207.2,31.2,212.7,31.2z"/>
		<rect x="76.8" y="383.5" class="st3" width="218.9" height="8.1"/>
		<polygon class="st3" points="281.7,160 287.4,160 287.4,128.7 293.4,128.7 293.4,123.5 275.7,123.5 275.7,128.7 281.7,128.7 		"/>
		<rect x="76.8" y="399" class="st3" width="205.1" height="8.1"/>
		<rect x="76.8" y="305.8" class="st3" width="205.1" height="8.1"/>
		<path class="st3" d="M265.3,160.4c5.6,0,8.5-3.3,8.5-9.2v-4.8h-5.4v5.2c0,2.6-1.1,3.5-3,3.5c-1.8,0-3-0.9-3-3.5v-19.7
			c0-2.6,1.1-3.6,3-3.6c1.8,0,3,1,3,3.6v3.9h5.4v-3.5c0-5.8-2.9-9.2-8.5-9.2c-5.6,0-8.6,3.3-8.6,9.2v19
			C256.8,157.1,259.7,160.4,265.3,160.4z"/>
		<path class="st3" d="M240.8,153.4h7l1,6.6h5.8l-5.8-36.5h-8.4l-5.8,36.5h5.3L240.8,153.4z M244.3,130h0.1l2.7,18.5h-5.5L244.3,130
			z"/>
		<polygon class="st2" points="244.4,130 244.3,130 241.6,148.4 247.1,148.4 		"/>
		<rect x="76.8" y="367.9" class="st3" width="169.1" height="8.1"/>
		<rect x="76.8" y="290.2" class="st3" width="167" height="8.1"/>
		<rect x="76.8" y="228" class="st3" width="167" height="8.1"/>
		<path class="st3" d="M220.9,145.1h2c2.6,0,3.7,1.3,3.7,4.6v5.7c0,3,0.2,3.5,0.5,4.5h5.8c-0.6-1.4-0.6-2.7-0.6-4.4v-5.6
			c0-3.8-0.9-6.5-3.8-7.7v-0.1c2.6-1.2,3.8-3.6,3.8-7.4v-2.9c0-5.6-2.6-8.4-8.5-8.4h-8.7V160h5.7V145.1z M220.9,128.7h2.8
			c2,0,2.9,1.1,2.9,3.8v3.6c0,2.9-1.3,3.9-3.5,3.9h-2.2V128.7z"/>
		<path class="st2" d="M226.6,136.1v-3.6c0-2.6-0.9-3.8-2.9-3.8h-2.8v11.2h2.2C225.2,139.9,226.6,139,226.6,136.1z"/>
		<path class="st5" d="M212.7,54.6c6.5,0,11.7-5.2,11.7-11.7c0-1.1-0.1-2.1-0.4-3.1h-22.6c-0.3,1-0.4,2-0.4,3.1
			C200.9,49.4,206.2,54.6,212.7,54.6z"/>
		<polygon class="st3" points="200.9,160 206.6,160 206.6,128.7 212.6,128.7 212.6,123.5 194.9,123.5 194.9,128.7 200.9,128.7 		"/>
		<polygon class="st3" points="179.4,133.6 179.5,133.6 186.6,160 192.5,160 192.5,123.5 187.3,123.5 187.3,145.3 187.2,145.3 
			181.5,123.5 174.3,123.5 174.3,160 179.4,160 		"/>
		<path class="st3" d="M161.9,160.4c5.6,0,8.7-3.3,8.7-9.2v-19c0-5.8-3.1-9.2-8.7-9.2c-5.6,0-8.7,3.3-8.7,9.2v3.5v15.4
			C153.2,157.1,156.3,160.4,161.9,160.4z M158.9,131.9c0-2.6,1.1-3.6,3-3.6c1.8,0,3,1,3,3.6v19.7c0,2.6-1.1,3.6-3,3.6
			c-1.8,0-3-1-3-3.6V131.9z"/>
		<path class="st2" d="M161.9,155.2c1.8,0,3-1,3-3.6v-19.7c0-2.6-1.1-3.6-3-3.6c-1.8,0-3,1-3,3.6v19.7
			C158.9,154.2,160.1,155.2,161.9,155.2z"/>
		<path class="st3" d="M141.6,160.4c5.6,0,8.6-3.3,8.6-9.2v-4.8h-5.4v5.2c0,2.6-1.1,3.5-3,3.5c-1.8,0-3-0.9-3-3.5v-19.7
			c0-2.6,1.1-3.6,3-3.6c1.8,0,3,1,3,3.6v3.9h5.4v-3.5c0-5.8-2.9-9.2-8.6-9.2c-5.6,0-8.6,3.3-8.6,9.2v19
			C133.1,157.1,136,160.4,141.6,160.4z"/>
	</g>
</g>
<g id="Слой_3">
	<path class="st3" d="M340.6,455.5c-7-0.3-13.9-0.6-20.9-0.9c-4.5-0.2-11.1,0.9-14.8-1.8c-2.9-2.1-2.5-3.5-6.4-1.7
		c-2.3,1.1-4.6,3.6-7.2,2.9c0.8-4,1.6-7.9,2.4-11.9c0.1-0.5,0.1-1.1,0-1.7c0-1.5,0-2.9,0-4.4c-3.6,6.5-7.5,12.8-11.7,19
		c-1.1,1.7-9.2,13.9-11.5,10.3c1.3-6,4-11.6,6.3-17.2c3.1-7.7,6.3-15.4,9.4-23.1c0.3-0.6,0.2-1.6,0-2.5c0-1.2,0-2.4,0-3.6
		c-11.7,16.9-23.5,33.8-35.2,50.7c-1,1.4,0.9,4.8,0,6.1c9.7-14,19.4-28,29.2-42c-2.3,5.6-4.5,11.2-6.8,16.8c-1.8,4.4-3,8.6-3.3,13.1
		c0-0.2-0.1-0.4-0.1-0.6c0,0.6,0,1.2,0,1.8c0,0.1,0,0.3,0,0.4c0,0.4,0,0.7,0,1.1c0,1-0.3,3.2,0.1,4.1c2,4.3,5.8-0.7,7.3-2.7
		c5.4-7.1,10.1-14.6,14.6-22.3c-0.5,2.7-1.1,5.4-1.6,8c0,0.1,0,0.2-0.1,0.4c-0.2,1.4-0.3,5.4,0.1,5.7c3.1,1.9,5.6-1.2,8.3-2.4
		c3.7-1.7,3.5-0.4,6.4,1.7c3.6,2.6,10.5,1.6,14.8,1.8c7,0.3,13.9,0.6,20.9,0.9C340.6,461.6,340.7,455.5,340.6,455.5z"/>
</g>
<g id="Слой_2">
	<g>
		<path class="st0" d="M497.4,285.4l-27.8,21.6l4.7,4.6l31.6-24.6l0.7-0.5C504.4,283.7,500.3,283.2,497.4,285.4z"/>
		<path class="st6" d="M320.8,435.1c0,0,1.7,9.2-4.9,17.1l17.7-13.8l0.7,0.9l-17.4,13.6c3.9-1.8,10.2-3.3,18.1-0.7l16-12.4
			l-13.6-17.5L320.8,435.1z"/>
		<polygon class="st5" points="523.3,309.4 523.3,309.4 505.9,287.1 474.3,311.7 433.7,343.3 435.1,345.1 435.6,345.7 449.3,363.2 
			451.1,365.6 464,355.6 494.6,331.8 		"/>
		<path class="st3" d="M442.5,328.2l27.2-21.2l27.8-21.6c2.8-2.2,6.9-1.7,9.1,1.1l-0.7,0.5l17.4,22.3l3.3-2.6
			c3.6-2.8,5.4-7,5.4-11.2c0-3-1-6.1-3-8.7c-4.8-6.1-13.7-7.3-19.9-2.5l0.9-0.7c-3.7-4.8-10.6-5.6-15.4-1.9l-28.5,22.2l-26.5,20.7
			L442.5,328.2z"/>
		<polygon class="st3" points="362.6,402.6 343.8,417.2 357.4,434.8 405,397.7 449.3,363.2 435.6,345.7 		"/>
		
			<rect x="343.4" y="417.4" transform="matrix(0.7889 -0.6145 0.6145 0.7889 -189.969 303.9238)" class="st5" width="8.1" height="22.2"/>
		<path class="st7" d="M347.9,401.8l7.5-8.6c4.4-5.1,3.8-12.7-1.3-17.1"/>
		<path class="st3" d="M333.7,438.4L316,452.2l-4.1,3.2l0.7,0.9l4.4-3.4l17.4-13.6L333.7,438.4z M312.3,455.8
			c0.1-0.1,0.3-0.3,0.7-0.6C312.8,455.4,312.5,455.6,312.3,455.8z"/>
		<path d="M313,455.2c-0.4,0.3-0.7,0.5-0.7,0.6C312.5,455.6,312.8,455.4,313,455.2z"/>
	</g>
</g>
</svg>
