<?xml version="1.0" encoding="utf-8"?>
<!-- Generator: Adobe Illustrator 19.2.1, SVG Export Plug-In . SVG Version: 6.00 Build 0)  -->
<svg version="1.1" id="objects" xmlns="http://www.w3.org/2000/svg" xmlns:xlink="http://www.w3.org/1999/xlink" x="0px" y="0px"
	 viewBox="0 0 800 800" style="enable-background:new 0 0 800 800;" xml:space="preserve">
<style type="text/css">
	.st0{fill:#FFCEA8;}
	.st1{fill:#FFEEE5;}
	.st2{fill:#F9B394;}
	.st3{fill:#00757B;}
	.st4{fill:#FFFFFF;}
	.st5{fill:#008F9A;}
	.st6{opacity:0.1;fill:#1C1C1B;}
	.st7{fill:#FA9538;}
	.st8{fill:#FFA436;}
	.st9{fill:#FF9A00;}
	.st10{fill-rule:evenodd;clip-rule:evenodd;fill:#FFC07A;}
	.st11{fill:#FFA63A;}
</style>
<g>
	<g>
		<g>
			<path class="st0" d="M586.8,629.8c2.3-2.8,3.7-6.3,3.7-10.2c0-3.9-1.4-7.5-3.7-10.2c-0.5-10.2-8.8-18.3-19.1-18.3
				c-1.7,0-3.3,0.2-4.8,0.6c0,0,0,0,0,0l-95.5,25l-0.1-0.4c6.8-3.8,11.5-11,11.5-19.4c0-12.2-9.9-22.1-22.1-22.1
				c-2,0-3.9,0.3-5.8,0.8c-8.1,1.5-71,12.7-107.1,10.3c-38.6-2.6-67.8-13-126.3,22.4h-23l-3.7,77.7c0,0,207.4,11.7,237.1,5.5
				c26.2-5.5,129.4-43.8,153.7-57.7c0.7-0.3,1.3-0.7,1.9-1.2C585.7,631.5,586.8,630.5,586.8,629.8z"/>
			<path class="st1" d="M468.9,596.9c0-7.9-6.4-14.3-14.3-14.3c-1,0-2,0.1-2.9,0.3l0,0l-16.5,4.3l5.2,27.7l17.1-4c0,0,0.1,0,0.1,0
				l0.7-0.2l0,0C464.4,609,468.9,603.5,468.9,596.9z"/>
			<path class="st1" d="M587.3,625c-1-3.3-5.3-6.4-11.8-4.1c-0.9,0.3-18.4,7.3-18.4,7.3l6,14.6l15-6.7l0,0
				C585.9,632.9,588.4,628.6,587.3,625z"/>
			<path class="st2" d="M465.7,617.1c0,0-76,22.3-115.6,17.4c0,0-15,4.1,8,4.4S426.3,639.7,465.7,617.1z"/>
			<path class="st2" d="M576.7,627.3c0,0-144.6,56.6-152.9,56.9c-8.3,0.3-30.7,0-30.7,0s21,7,31.7,5.3
				c10.7-1.7,148.1-50.2,153.8-59.9C592.4,606.3,576.7,627.3,576.7,627.3z"/>
			<path class="st1" d="M584.3,617.1c-0.1-3.5-5.2-6.5-11.7-4.4c-1,0.3-18.6,6.9-18.6,6.9l5.4,14.4l15.4-6l0,0
				C581,626.3,584.4,622.4,584.3,617.1z"/>
		</g>
		<g>
			<rect y="568.1" class="st3" width="177.6" height="156"/>
			<rect x="177.6" y="575.6" class="st4" width="18" height="141.3"/>
			<circle class="st5" cx="157.5" cy="712.1" r="5.6"/>
			<circle class="st5" cx="135.5" cy="712.1" r="5.6"/>
			<rect x="0.3" y="646.1" class="st6" width="177.2" height="78.2"/>
		</g>
	</g>
	<g>
		<g>
			<g>
				<g>
					<path class="st7" d="M543,437.3c-32.2-90.2-158.9-108.4-200.6-112c20.1-15.9,43.7-26.2,69-26.2
						C481.2,299.2,538.4,377.4,543,437.3z"/>
					<path class="st8" d="M543.3,445c0,3.4-0.2,6.7-0.5,10c-6.1,54.5-62.6,84.6-131.4,84.6c-72.9,0-131.9-33.8-131.9-94.6
						c0-37.9,22.9-85.2,57.9-115.5c1.7-1.4,3.4-2.8,5.1-4.2c41.7,3.6,168.5,21.8,200.6,112C543.2,439.9,543.3,442.5,543.3,445z"/>
				</g>
				<g>
					<circle class="st9" cx="414" cy="428.5" r="53.1"/>
					<path class="st10" d="M413.2,382.7c-25.3,0.4-45.4,21.3-45,46.5c0.4,25.3,21.3,45.4,46.5,45c25.3-0.4,45.4-21.3,45-46.5
						C459.3,402.4,438.5,382.3,413.2,382.7z M426.9,444.9c-2.1,2.3-4.7,3.9-8,4.6v4.1h-7.8v-3.6c-2.3-0.2-4.4-0.6-6.4-1.4
						c-2.4-1-4.8-2.6-7-4.7l5.4-9c1.8,2,3.6,3.5,5.4,4.5c0.9,0.5,1.7,0.8,2.6,1.1c0.9,0.2,1.9,0.4,2.9,0.3c1.5,0,2.8-0.5,3.8-1.4
						c0.5-0.4,0.9-0.9,1.1-1.5v-3.8c-0.2-0.5-0.5-1-1-1.4c-0.9-0.8-2.8-1.5-5.8-2.3c-0.3-0.1-0.7-0.2-1-0.3c-4.1-1.1-7-2.5-8.7-4.3
						c-1.9-1.8-2.8-4.4-2.9-7.7c-0.1-4,1.1-7.3,3.6-9.8c2-2,4.7-3.4,8-4.2v-4.8h7.8v4.4c1.3,0.2,2.7,0.5,4,1
						c1.7,0.6,3.4,1.5,5.1,2.5l-3.7,8.7c-1.4-1.1-2.8-2-4.3-2.6c-0.4-0.2-0.7-0.3-1.1-0.4c-1.1-0.3-2.1-0.4-3.2-0.4
						c-1.5,0-2.6,0.4-3.5,1.1c-0.5,0.4-0.8,0.8-1,1.3c-0.2,0.4-0.3,0.8-0.3,1.3c0,0.5,0.1,1,0.3,1.3c0.2,0.5,0.5,0.9,1,1.3
						c0.8,0.7,2.4,1.3,4.7,1.8l0.4,0.1c0.6,0.1,1.1,0.3,1.7,0.5c4.1,1.1,6.8,2.4,8.2,3.8c1.1,1.1,1.9,2.4,2.5,3.9
						c0.6,1.5,0.9,3.2,0.9,5.1C430.6,438.6,429.4,442.1,426.9,444.9z"/>
				</g>
			</g>
			<g>
				<path class="st7" d="M468,151.2l-5.7,23.4H349.1l-1.9-7.2C372.9,169.9,432.2,172.5,468,151.2z"/>
				<path class="st11" d="M475.4,120.5L475.4,120.5l-0.1,0.7c-0.1,0.5-0.2,1-0.4,1.5l-0.8,3.3l-2.8,11.6l0,0l-3.3,13.6
					c-35.8,21.3-95.1,18.6-120.7,16.2l-1.2-4.7l-10.1-39.1c-0.3-0.9-0.5-1.7-0.7-2.6l0,0c-0.3-1.5-0.4-3-0.4-4.5
					c0-11.9,8.9-21.8,20.4-23.3c0,0,0,0,0,0h0c1-0.1,2.1-0.2,3.1-0.2c13,0,23.5,10.5,23.5,23.5c0,0.3,0,0.6,0,0.8h0
					c0-0.3,0-0.6,0-0.8c0-0.5,0-0.9,0-1.4c0.7-12.3,10.9-22.1,23.5-22.1c13,0,23.5,10.5,23.5,23.5c0,0.3,0,0.6,0,0.8h0
					c0-0.3,0-0.6,0-0.8c0-13,10.5-23.5,23.5-23.5c13,0,23.5,10.5,23.5,23.5C475.8,117.9,475.7,119.2,475.4,120.5z"/>
				<path class="st7" d="M382.3,138.2c-4.8-44.4-26.5-44.9-27.2-45c1-0.1,2.1-0.2,3.1-0.2c13,0,23.5,10.5,23.5,23.5
					c0-0.5,0-0.9,0-1.4C381.9,126.4,382.3,138.2,382.3,138.2z"/>
				<path class="st7" d="M429.3,138.2c-4.8-44.4-26.5-44.9-27.2-45c1-0.1,2.1-0.2,3.1-0.2c13,0,23.5,10.5,23.5,23.5
					c0-0.5,0-0.9,0-1.4C428.9,126.4,429.3,138.2,429.3,138.2z"/>
				<path class="st7" d="M475.4,120.5L475.4,120.5l-0.1,0.7c-0.1,0.5-0.2,1-0.4,1.5l-0.8,3.3l-2.8,11.6l0,0c0,0,2.3-14.1,0.4-22.8
					C467,94,452.3,93,452.3,93c13,0,23.5,10.5,23.5,23.5C475.8,117.9,475.7,119.2,475.4,120.5z"/>
			</g>
		</g>
		<g>
			<g>
				<rect x="543.2" y="171.1" class="st3" width="257.6" height="156"/>
				<rect x="525.2" y="178.7" class="st4" width="18" height="141.3"/>
				<circle class="st5" cx="563.3" cy="315.1" r="5.6"/>
				<circle class="st5" cx="585.3" cy="315.1" r="5.6"/>
				<rect x="543.2" y="249.1" class="st6" width="256.8" height="78.2"/>
			</g>
			<g>
				<path class="st0" d="M525.2,190.6v114.3h-22.6c0,0-5.9,16.5-31.6,17.3c-25.8,0.8-126,0-126,0c-9.5,0-17.3-7.7-17.3-17.3
					c0-8.8,6.6-16.1,15.1-17.1l0-0.4c-0.9,0.1-1.8,0.2-2.7,0.2c-10,0-18.2-8.1-18.2-18.2c0-10,8.1-18.2,18.2-18.2c0.2,0,0.3,0,0.5,0
					l0-0.6c-1.5,0.4-3.1,0.6-4.8,0.6c-10.6,0-19.1-8.6-19.1-19.1c0-10.6,8.6-19.1,19.1-19.1c0.8,0,1.6,0.1,2.4,0.2l0-0.2l0-0.2
					c-0.8,0.1-1.6,0.2-2.4,0.2c0,0-0.4,0-1,0c-10.1-0.5-18.1-8.9-18.1-19.1c0-0.3,0-0.6,0-0.9c0.5-10.1,8.9-18.2,19.1-18.2h126.6
					l5.5-22.6c0,0,22.6,4,31.9,38.5H525.2z"/>
				<path class="st2" d="M363.5,212.9h-27.8c0,0-0.4,0-1,0c-10.1-0.5-18.1-8.9-18.1-19.1c0-0.3,0-0.6,0-0.9c0,0,0.2,0.1,0.3,0.5
					C318.3,200.8,329.1,211.1,363.5,212.9z"/>
				<path class="st2" d="M363.5,251.9h-27.8c0,0-0.4,0-1,0c-10.1-0.5-18.1-8.9-18.1-19.1c0-0.3,0-0.6,0-0.9c0,0,0.2,0.1,0.3,0.5
					C318.3,239.8,329.1,250.1,363.5,251.9z"/>
				<path class="st2" d="M368.8,288.2H341c0,0-0.4,0-1,0c-10.1-0.5-18.1-8.9-18.1-19.1c0-0.3,0-0.6,0-0.9c0,0,0.2,0.1,0.3,0.5
					C323.6,276.1,334.4,286.5,368.8,288.2z"/>
			</g>
		</g>
	</g>
</g>
</svg>
