<?xml version="1.0" encoding="utf-8"?>
<!-- Generator: Adobe Illustrator 19.2.1, SVG Export Plug-In . SVG Version: 6.00 Build 0)  -->
<svg version="1.1" id="Layer_3" xmlns="http://www.w3.org/2000/svg" xmlns:xlink="http://www.w3.org/1999/xlink" x="0px" y="0px"
	 viewBox="0 0 1929.5 1896" style="enable-background:new 0 0 1929.5 1896;" xml:space="preserve">
<style type="text/css">
	.st0{fill:#030303;}
	.st1{fill:#D1D1D1;}
	.st2{fill:#FFC696;}
	.st3{fill:#F1B286;}
	.st4{fill:#F61C1C;}
	.st5{fill:#F8F8F8;}
	.st6{fill:#4F4F4F;}
	.st7{fill:#E7B89B;}
	.st8{fill:#F6D2B5;}
	.st9{fill:#FFC797;}
	.st10{fill:#F8BD92;}
	.st11{fill:#00CBD4;}
	.st12{fill:#00A7A9;}
	.st13{fill:#FFFFFF;}
	.st14{fill-rule:evenodd;clip-rule:evenodd;fill:#FFFFFF;}
	.st15{fill-rule:evenodd;clip-rule:evenodd;fill:#FF6246;}
</style>
<path class="st0" d="M974.5,1026.9c0,0-76.5,54.5-232.1,104.1c0,0-75.5,20.7-147.1,49.9c-34.3,14-63.2,38.6-82.2,70.4
	c-18.5,31-38.3,77.3-50,143.7c0,0-27.6,115.2-21.4,290.9c0,0,130.8,124.6,690.3,136.6l-2.3-714.3L974.5,1026.9z"/>
<polygon class="st1" points="1174.2,1646.1 1132.2,1740.5 972.1,1108.3 1308.9,1108.3 "/>
<path class="st2" d="M1280.2,904.1c-1.2,5.5,4.6,162.6,4.6,162.6L1177,1178.2l-194.2-117l8.3-157.1H1280.2z"/>
<path class="st3" d="M1283.6,1034.6l-294.4-96.4l1.8-34.1h3.7c148.7,4.7,204.7,6.1,282.3,0h3.2C1279.3,908,1282,988.4,1283.6,1034.6
	z"/>
<path class="st0" d="M1289.7,1026.9c0,0,76.5,54.5,232.1,104.1c0,0,75.5,20.7,147.1,49.9c34.3,14,63.2,38.6,82.2,70.4
	c18.5,31,38.3,77.3,50,143.7c0,0,27.6,115.2,21.4,290.9c0,0-130.8,124.6-690.3,136.6l2.3-714.3L1289.7,1026.9z"/>
<polygon class="st1" points="1090,1646.1 1132,1740.5 1292.1,1108.3 955.2,1108.3 "/>
<g>
	<g>
		<g>
			<path class="st4" d="M1169.6,1173.3c-1.5,2.9-7.9,5.1-14.4,5.1h-43.1c-6.5,0-12.9-2.2-14.4-5.1l-24.7-48
				c-4.8-9.3,1.8-18.1,15.4-18.1h90.5c13.6,0,20.2,8.7,15.4,18.1L1169.6,1173.3z"/>
		</g>
		<g>
			<polygon class="st4" points="1202.5,1625.8 1134.1,1740.5 1063.8,1636.2 1072.7,1512.6 1097.4,1172 1169.6,1172 1195.1,1524.3 
							"/>
		</g>
	</g>
</g>
<polygon class="st5" points="1283.1,1022.9 1243.4,1202.7 1131.2,1107.2 "/>
<polygon class="st5" points="981.1,1022.9 1020.8,1202.7 1133,1107.2 "/>
<polygon class="st6" points="1283.1,1022.9 1371.4,1072.2 1400.6,1237.2 1331.7,1281.3 1387.8,1311.7 1132.3,1822.5 1132.3,1706.8 
	"/>
<polygon class="st6" points="981.1,1022.9 892.8,1072.2 863.6,1237.2 932.5,1281.3 876.3,1311.7 1131.9,1822.5 1131.9,1706.8 "/>
<path class="st7" d="M853.5,565.5c1.4,40.7-6.9,76.2-27.9,76.9c-21,0.7-36.3-31.8-37.7-72.5c-1.4-40.7,14.7-74.3,35.8-75
	C844.7,494.1,852.1,524.8,853.5,565.5z"/>
<path class="st8" d="M1401.2,557.3c-1.4,40.7,6.9,76.2,27.9,76.9c21,0.7,36.3-31.8,37.7-72.5c1.4-40.7-14.7-74.3-35.8-75
	C1410,486,1402.6,516.6,1401.2,557.3z"/>
<ellipse class="st9" cx="1131.9" cy="574.3" rx="285.9" ry="406.1"/>
<path class="st10" d="M1134.5,168.2v812.1C976.1,981.9,846,803,846,579.7C846,351.6,966.4,172.2,1134.5,168.2z"/>
<path d="M861,704.2c0,0-65.4-243.6,74.7-365.6c0,0,104.4,84.1,231.4,54.5c0,0,42-9,92.6-40.7c0,0,99.2-42.1,131.8,55.1
	c34.7,103.5,17.1,208.8,19.2,271.8c0,0,46.4-104.9,47.9-264.5c0,0,7.5,28.2,10.5,63.1c0,0,17.5-121.8-14.2-193.5
	c0,0-23.2-76.8-111.7-116.2c0,0-52.4-83.7-261.5-66.9c0,0-3.4-14.3,28.9-27.4c0,0-161.1-10.3-197.6,99.3c0,0-130.5,28.6-118.3,255.5
	l13.8-42.4C808.4,386.3,783,599.9,861,704.2z"/>
<path class="st11" d="M1490.6,552.4c0,0,62.6,68.4,11,179.4c0,0-69.8,140.4-311.9,148.3v-23.7c0,0,358.2-6.4,298.6-262L1490.6,552.4
	z"/>
<path class="st12" d="M1189.2,898.2h-115c-17.4,0-31.6-14.2-31.6-31.6l0,0c0-17.4,14.2-31.6,31.6-31.6h115
	c17.4,0,31.6,14.2,31.6,31.6l0,0C1220.8,884,1206.6,898.2,1189.2,898.2z"/>
<path class="st12" d="M1464.4,650.8h-8.5c-16.1,0-29.3-13.2-29.3-29.3v-90.4c0-16.1,13.2-29.3,29.3-29.3h8.5
	c16.1,0,29.3,13.2,29.3,29.3v90.4C1493.7,637.6,1480.5,650.8,1464.4,650.8z"/>
<path class="st13" d="M1593.5,1481.2c67.1,0,125.4,32.6,124,71.5c-0.4,12.4-19.2,34.6-19.2,34.6l0.9,60l-66.7-27.8
	c0,0-20.6,2.5-31.9,2.5c-67.1,0-128.7-31.5-128.7-70.4S1526.4,1481.2,1593.5,1481.2 M1593.5,1480.1c-16.5,0-32.5,1.9-47.6,5.6
	c-14.6,3.6-27.7,8.7-38.9,15.2c-11.3,6.5-20.2,14.2-26.4,22.7c-6.5,8.9-9.8,18.3-9.8,28.1c0,9.7,3.7,19.2,10.9,28.1
	c6.8,8.5,16.6,16.1,28.9,22.7c12.1,6.5,26,11.6,41.4,15.2c15.8,3.7,32.1,5.6,48.7,5.6c10.4,0,29.1-2.2,31.7-2.5l66.4,27.7l1.7,0.7
	l0-1.8l-0.9-59.5c2.5-3,18.7-23,19.2-35c0.4-12.1-4.8-24.2-15.2-34.9c-10.8-11.2-26.6-20.6-45.8-27.3
	C1638,1483.7,1615.8,1480.1,1593.5,1480.1L1593.5,1480.1z"/>
<path class="st13" d="M1543,1541.2c7.1,0,12.8,5.7,12.8,12.8s-5.7,12.8-12.8,12.8c-7.1,0-12.8-5.7-12.8-12.8
	S1535.9,1541.2,1543,1541.2 M1543,1540.1c-7.7,0-14,6.3-14,14s6.3,14,14,14c7.7,0,14-6.3,14-14S1550.8,1540.1,1543,1540.1
	L1543,1540.1z"/>
<path class="st13" d="M1594.1,1539.5c7.1,0,12.8,5.7,12.8,12.8c0,7.1-5.7,12.8-12.8,12.8c-7.1,0-12.8-5.7-12.8-12.8
	C1581.3,1545.3,1587,1539.5,1594.1,1539.5 M1594.1,1538.3c-7.7,0-14,6.3-14,14s6.3,14,14,14c7.7,0,14-6.3,14-14
	S1601.8,1538.3,1594.1,1538.3L1594.1,1538.3z"/>
<path class="st13" d="M1645.2,1539.5c7.1,0,12.8,5.7,12.8,12.8c0,7.1-5.7,12.8-12.8,12.8c-7.1,0-12.8-5.7-12.8-12.8
	C1632.4,1545.3,1638.1,1539.5,1645.2,1539.5 M1645.2,1538.3c-7.7,0-14,6.3-14,14s6.3,14,14,14c7.7,0,14-6.3,14-14
	S1652.9,1538.3,1645.2,1538.3L1645.2,1538.3z"/>
<path class="st14" d="M372.8,156.4c-161.9,0-293.2,138.3-293.2,308.8c0,170.5,131.3,308.8,293.2,308.8l413.6,59.2L578.6,685
	c53.9-55.9,87.3-133.7,87.3-219.7C665.9,294.8,534.6,156.4,372.8,156.4L372.8,156.4z"/>
<path class="st15" d="M329.4,470.6c2.2-9.3,5.1-21.3,8-35.7c6.2-30.8,26.2-46.3,60.3-46.3c8,0,14,1.3,18.2,3.8
	c4.2,2.2,6.4,5.5,6.4,10.2c0,6-3.8,18-10.6,35.7c-7.1,17.7-12,31.5-15.1,41.2l-29.3,88.9l-1.3,3.5c-7.3,21.5-10.9,35.5-10.9,41.7
	c0,8.6,2.7,14.6,8.4,18c5.8,3.3,17.5,5.5,35,6.7L387,679.5h-10.6c-26.4,0-46.1-3.3-59.4-10.2c-13.1-6.9-20.8-17.7-23.3-33
	L329.4,470.6z M408.3,339.8c-11.7,0-21.1-3.3-27.3-9.8c-6.4-6.4-9.8-15.5-9.8-27.3c0-15.5,4.7-28.4,14.2-38.8
	c9.5-10.6,20.8-15.7,34.1-15.7c10.9,0,19.7,3.5,26.8,10.6c7.1,7.1,10.6,16.4,10.6,27.5c0,15.3-4.7,27.9-14,38.1
	C433.8,334.5,422.3,339.8,408.3,339.8L408.3,339.8z"/>
</svg>
