<?xml version="1.0" encoding="utf-8"?>
<!-- Generator: Adobe Illustrator 19.2.1, SVG Export Plug-In . SVG Version: 6.00 Build 0)  -->
<svg version="1.1" id="Object" xmlns="http://www.w3.org/2000/svg" xmlns:xlink="http://www.w3.org/1999/xlink" x="0px" y="0px"
	 viewBox="0 0 582 682.5" style="enable-background:new 0 0 582 682.5;" xml:space="preserve">
<style type="text/css">
	.st0{fill:#5D7387;}
	.st1{fill:#C6CAD1;}
	.st2{fill:#FFFFFF;}
	.st3{fill:none;stroke:#303030;stroke-width:8;stroke-miterlimit:10;}
	.st4{fill:none;stroke:#00D395;stroke-width:12;stroke-miterlimit:10;}
	.st5{fill:#999999;}
</style>
<g>
	<rect x="74" y="54.1" transform="matrix(0.9914 -0.1309 0.1309 0.9914 -40.4034 41.4397)" class="st0" width="442" height="548"/>
	
		<rect x="20.6" y="130.3" transform="matrix(6.505833e-002 -0.9979 0.9979 6.505833e-002 -75.1417 622.4028)" class="st1" width="548" height="442"/>
	<g>
		
			<rect x="46.7" y="82.4" transform="matrix(0.9933 -0.1156 0.1156 0.9933 -39.4156 33.3448)" class="st2" width="442" height="548"/>
		<g>
			<g>
				
					<rect x="63.7" y="143.9" transform="matrix(0.9933 -0.1156 0.1156 0.9933 -20.219 12.8286)" class="st3" width="73.5" height="73.5"/>
				<polyline class="st4" points="77.8,176 93.1,196.5 124.5,162.9 				"/>
				<g>
					
						<rect x="163.1" y="131.6" transform="matrix(0.9933 -0.1156 0.1156 0.9933 -13.7103 34.718)" class="st5" width="258.4" height="7.8"/>
					
						<rect x="165.8" y="154.5" transform="matrix(0.9933 -0.1156 0.1156 0.9933 -16.3423 35.1804)" class="st5" width="258.4" height="7.8"/>
					
						<rect x="168.8" y="183.8" transform="matrix(0.9933 -0.1156 0.1156 0.9933 -20.1122 28.6057)" class="st5" width="135.4" height="7.8"/>
				</g>
			</g>
			<g>
				
					<rect x="74.7" y="238.1" transform="matrix(0.9933 -0.1156 0.1156 0.9933 -31.0408 14.7294)" class="st3" width="73.5" height="73.5"/>
				<polyline class="st4" points="88.8,270.2 104.1,290.7 135.5,257.1 				"/>
				<g>
					
						<rect x="174.1" y="225.8" transform="matrix(0.9933 -0.1156 0.1156 0.9933 -24.5323 36.6194)" class="st5" width="258.4" height="7.8"/>
					
						<rect x="176.8" y="248.8" transform="matrix(0.9933 -0.1156 0.1156 0.9933 -27.1643 37.0816)" class="st5" width="258.4" height="7.8"/>
					
						<rect x="179.7" y="278" transform="matrix(0.9933 -0.1156 0.1156 0.9933 -30.9339 30.5065)" class="st5" width="135.4" height="7.8"/>
				</g>
			</g>
			<g>
				
					<rect x="85.6" y="332.3" transform="matrix(0.9933 -0.1157 0.1157 0.9933 -41.8666 16.632)" class="st3" width="73.5" height="73.5"/>
				<polyline class="st4" points="99.8,364.4 115.1,384.9 146.4,351.3 				"/>
				<g>
					
						<rect x="185.1" y="320.1" transform="matrix(0.9933 -0.1156 0.1156 0.9933 -35.3535 38.5195)" class="st5" width="258.4" height="7.8"/>
					
						<rect x="187.7" y="343" transform="matrix(0.9933 -0.1156 0.1156 0.9933 -37.986 38.9823)" class="st5" width="258.4" height="7.8"/>
					
						<rect x="190.7" y="372.2" transform="matrix(0.9933 -0.1156 0.1156 0.9933 -41.7564 32.408)" class="st5" width="135.4" height="7.8"/>
				</g>
			</g>
			<g>
				
					<rect x="96.6" y="426.6" transform="matrix(0.9933 -0.1156 0.1156 0.9933 -52.6778 18.5281)" class="st3" width="73.5" height="73.5"/>
				<polyline class="st4" points="110.7,458.6 126,479.1 157.4,445.5 				"/>
				<g>
					
						<rect x="196" y="414.3" transform="matrix(0.9933 -0.1156 0.1156 0.9933 -46.1743 40.4192)" class="st5" width="258.4" height="7.8"/>
					
						<rect x="198.7" y="437.2" transform="matrix(0.9933 -0.1157 0.1157 0.9933 -48.8091 40.8844)" class="st5" width="258.4" height="7.8"/>
					
						<rect x="201.7" y="466.4" transform="matrix(0.9933 -0.1156 0.1156 0.9933 -52.5767 34.3075)" class="st5" width="135.4" height="7.8"/>
				</g>
			</g>
			<g>
				
					<rect x="107.6" y="520.8" transform="matrix(0.9933 -0.1157 0.1157 0.9933 -63.5129 20.4341)" class="st3" width="73.5" height="73.5"/>
				<polyline class="st4" points="121.7,552.8 137,573.3 168.4,539.7 				"/>
				<g>
					
						<rect x="207" y="508.5" transform="matrix(0.9933 -0.1157 0.1157 0.9933 -56.9989 42.3227)" class="st5" width="258.4" height="7.8"/>
					
						<rect x="209.7" y="531.4" transform="matrix(0.9933 -0.1156 0.1156 0.9933 -59.6274 42.782)" class="st5" width="258.4" height="7.8"/>
					
						<rect x="212.7" y="560.6" transform="matrix(0.9933 -0.1157 0.1157 0.9933 -63.4059 36.2132)" class="st5" width="135.4" height="7.8"/>
				</g>
			</g>
		</g>
	</g>
</g>
</svg>
