<?xml version="1.0" encoding="utf-8"?>
<!-- Generator: Adobe Illustrator 19.2.1, SVG Export Plug-In . SVG Version: 6.00 Build 0)  -->
<svg version="1.1" id="OBJECTS" xmlns="http://www.w3.org/2000/svg" xmlns:xlink="http://www.w3.org/1999/xlink" x="0px" y="0px"
	 viewBox="0 0 286.5 210" style="enable-background:new 0 0 286.5 210;" xml:space="preserve">
<style type="text/css">
	.st0{fill-rule:evenodd;clip-rule:evenodd;fill:#3E3E3F;}
	.st1{fill-rule:evenodd;clip-rule:evenodd;fill:#9491C1;}
	.st2{clip-path:url(#SVGID_8_);}
	.st3{fill-rule:evenodd;clip-rule:evenodd;fill:#1B1B1C;}
	.st4{clip-path:url(#SVGID_10_);}
	.st5{fill-rule:evenodd;clip-rule:evenodd;fill:#57595B;}
	.st6{clip-path:url(#SVGID_12_);}
	.st7{fill-rule:evenodd;clip-rule:evenodd;fill:#E5E7E8;}
	.st8{fill-rule:evenodd;clip-rule:evenodd;fill:#CFD2D3;}
	.st9{fill-rule:evenodd;clip-rule:evenodd;fill:#807FA3;}
	.st10{fill-rule:evenodd;clip-rule:evenodd;fill:#A09EC9;}
	.st11{fill-rule:evenodd;clip-rule:evenodd;fill:#8986AF;}
	.st12{fill-rule:evenodd;clip-rule:evenodd;fill:#6D6E71;}
	.st13{fill:#F2F3F5;}
	.st14{fill:#C4E6EA;}
	.st15{fill:#AED2D5;}
	.st16{fill:#3B5A7A;}
	.st17{fill:#FFCFB0;}
	.st18{fill:#BCDED9;}
	.st19{fill:#91CED6;}
	.st20{fill:#253D52;}
</style>
<g>
	<g>
		<g>
			<defs>
				<path id="SVGID_1_" d="M64.4,39.2c-4.1,1.1-9.7,5.6-11.5,7.7c-1.9,2.2-35.4,55.3-38.7,63.5c-3.3,8.2-2.6,31.3-0.8,41.5
					c1.8,10.2,8.1,22,10.8,24.6c2.7,2.6,3.3,3.2,4.7,3.2c1.3,0,78.9,2.3,84.9,1.8c0.8-0.1,1.5-0.1,2.1-0.2c0.6,0,1.3,0.1,2.1,0.2
					c6,0.5,83.5-1.8,84.9-1.8s2-0.6,4.7-3.2c2.7-2.6,9-14.4,10.8-24.6c1.8-10.2,2.6-33.3-0.8-41.5c-3.3-8.2-36.8-61.4-38.7-63.5
					c-1.9-2.2-7.4-6.6-11.5-7.7C154,35.6,77.1,35.7,64.4,39.2z"/>
			</defs>
			<clipPath id="SVGID_2_">
				<use xlink:href="#SVGID_1_"  style="overflow:visible;"/>
			</clipPath>
		</g>
		<g>
			<defs>
				<path id="SVGID_3_" d="M72.2,122.2h87.1c5.5,0,9.9,4.5,9.9,9.9v9.9h-107v-9.9C62.3,126.7,66.7,122.2,72.2,122.2z"/>
			</defs>
			<clipPath id="SVGID_4_">
				<use xlink:href="#SVGID_3_"  style="overflow:visible;"/>
			</clipPath>
		</g>
		<g>
			<defs>
				<path id="SVGID_5_" d="M167.7,160.6v1.3c0,7.6-6.2,13.8-13.8,13.8H80.5c-7.6,0-13.8-6.2-13.8-13.8v-1.3H167.7z"/>
			</defs>
			<clipPath id="SVGID_6_">
				<use xlink:href="#SVGID_5_"  style="overflow:visible;"/>
			</clipPath>
		</g>
	</g>
	<g>
		<g>
			<path class="st0" d="M25,146.2h12.7c6.1,0,11.1,5,11.1,11.1v26c0,6.1-5,11.1-11.1,11.1H25c-6.1,0-11.1-5-11.1-11.1v-26
				C13.9,151.2,18.9,146.2,25,146.2z"/>
			<path class="st0" d="M193.8,146.2h12.7c6.1,0,11.1,5,11.1,11.1v26c0,6.1-5,11.1-11.1,11.1h-12.7c-6.1,0-11.1-5-11.1-11.1v-26
				C182.7,151.2,187.7,146.2,193.8,146.2z"/>
		</g>
		<g>
			<g>
				<path class="st1" d="M199.7,82.7c3-0.3,18.7,1.8,16.8-5.6c-0.7-2.9-3.7-5.3-6.2-6.5c-3-1.4-13-1.7-14.2,3.7
					c-0.5,2.4,0.4,6.2,0.9,6.9C197.6,81.9,199.7,82.7,199.7,82.7z"/>
				<path class="st0" d="M200.4,85.8c0.4-1.2,0.7-6,2.2-6.6c1.5-0.6,6.2,0.2,6.2,0.6c0.1,0.4-2.6,10.6-3.2,10.5
					C205.1,90.4,200.4,85.8,200.4,85.8z"/>
			</g>
			<g>
				<path class="st1" d="M31.8,83.2c-3-0.3-18.7,1.8-16.8-5.6c0.7-2.9,3.7-5.3,6.2-6.5c3-1.4,13-1.7,14.2,3.7
					c0.5,2.4-0.4,6.2-0.9,6.9C33.9,82.4,31.8,83.2,31.8,83.2z"/>
				<path class="st0" d="M31,85.3c-0.4-1.2-0.7-6-2.2-6.6c-1.5-0.6-6.2,0.2-6.2,0.6c-0.1,0.4,2.6,10.6,3.2,10.5
					C26.4,89.8,31,85.3,31,85.3z"/>
			</g>
		</g>
		<path class="st1" d="M64.4,39.2c-4.1,1.1-9.7,5.6-11.5,7.7c-1.9,2.2-35.4,55.3-38.7,63.5c-3.3,8.2-2.6,31.3-0.8,41.5
			c1.8,10.2,8.1,22,10.8,24.6c2.7,2.6,3.3,3.2,4.7,3.2c1.3,0,78.9,2.3,84.9,1.8c0.8-0.1,1.5-0.1,2.1-0.2c0.6,0,1.3,0.1,2.1,0.2
			c6,0.5,83.5-1.8,84.9-1.8s2-0.6,4.7-3.2c2.7-2.6,9-14.4,10.8-24.6c1.8-10.2,2.6-33.3-0.8-41.5c-3.3-8.2-36.8-61.4-38.7-63.5
			c-1.9-2.2-7.4-6.6-11.5-7.7C154,35.6,77.1,35.7,64.4,39.2z"/>
		<g>
			<defs>
				<path id="SVGID_7_" d="M64.4,39.2c-4.1,1.1-9.7,5.6-11.5,7.7c-1.9,2.2-35.4,55.3-38.7,63.5c-3.3,8.2-2.6,31.3-0.8,41.5
					c1.8,10.2,8.1,22,10.8,24.6c2.7,2.6,3.3,3.2,4.7,3.2c1.3,0,78.9,2.3,84.9,1.8c0.8-0.1,1.5-0.1,2.1-0.2c0.6,0,1.3,0.1,2.1,0.2
					c6,0.5,83.5-1.8,84.9-1.8s2-0.6,4.7-3.2c2.7-2.6,9-14.4,10.8-24.6c1.8-10.2,2.6-33.3-0.8-41.5c-3.3-8.2-36.8-61.4-38.7-63.5
					c-1.9-2.2-7.4-6.6-11.5-7.7C154,35.6,77.1,35.7,64.4,39.2z"/>
			</defs>
			<clipPath id="SVGID_8_">
				<use xlink:href="#SVGID_7_"  style="overflow:visible;"/>
			</clipPath>
			<g class="st2">
				<path class="st3" d="M24.2,111.6c-0.9,0.3-3,1.6-5.3,3c-2.9,1.9-6.1,4.1-7.2,5l-0.4-0.4c1.2-1,4.3-3.2,7.3-5.1
					c2.3-1.5,4.4-2.7,5.4-3L24.2,111.6z"/>
				<path class="st3" d="M206.4,111.1c0.7,0.2,2,1,3.5,1.9c2,1.2,4.3,2.8,6,4c2.3,1.6,4.3,3,4.3,3l-0.3,0.5c0,0-0.5-0.4-4.3-3
					c-1.7-1.2-4.1-2.8-6-4c-1.5-0.9-2.7-1.6-3.3-1.8L206.4,111.1z"/>
			</g>
		</g>
		<path class="st3" d="M62.8,44.4c-2.6,1.5-24.2,32.7-24.2,33.5c0,0.7,2.9,0.8,2.9,0.8l74.3-0.8l74.3,0.8c0,0,2.9-0.1,2.9-0.8
			c0-0.7-22.1-31.4-24.2-33.5C163.3,39.1,72.5,38.9,62.8,44.4z"/>
		<path class="st0" d="M72.2,122.2h87.1c5.5,0,9.9,4.5,9.9,9.9v9.9h-107v-9.9C62.3,126.7,66.7,122.2,72.2,122.2z"/>
		<g>
			<defs>
				<path id="SVGID_9_" d="M72.2,122.2h87.1c5.5,0,9.9,4.5,9.9,9.9v9.9h-107v-9.9C62.3,126.7,66.7,122.2,72.2,122.2z"/>
			</defs>
			<clipPath id="SVGID_10_">
				<use xlink:href="#SVGID_9_"  style="overflow:visible;"/>
			</clipPath>
			<g class="st4">
				<rect x="57.2" y="123.5" class="st5" width="122.5" height="1.9"/>
				<rect x="57.2" y="128.6" class="st5" width="122.5" height="1.9"/>
				<rect x="57.2" y="133.7" class="st5" width="122.5" height="1.9"/>
				<rect x="57.2" y="138.9" class="st5" width="122.5" height="1.9"/>
			</g>
		</g>
		<path class="st0" d="M167.7,160.6v1.3c0,7.6-6.2,13.8-13.8,13.8H80.5c-7.6,0-13.8-6.2-13.8-13.8v-1.3H167.7z"/>
		<g>
			<defs>
				<path id="SVGID_11_" d="M167.7,160.6v1.3c0,7.6-6.2,13.8-13.8,13.8H80.5c-7.6,0-13.8-6.2-13.8-13.8v-1.3H167.7z"/>
			</defs>
			<clipPath id="SVGID_12_">
				<use xlink:href="#SVGID_11_"  style="overflow:visible;"/>
			</clipPath>
			<g class="st6">
				<rect x="61.5" y="162" class="st5" width="111.5" height="1.4"/>
				<rect x="61.5" y="165.6" class="st5" width="111.5" height="1.4"/>
				<rect x="61.5" y="169.3" class="st5" width="111.5" height="1.4"/>
				<rect x="61.5" y="173" class="st5" width="111.5" height="1.4"/>
			</g>
		</g>
		<path class="st3" d="M42.7,75c-0.4,0.2-1.2,0.7-2.3,2.1c-1.1,1.4-2.5,3.7-4.2,7.5c-3,6.9-3.4,12-3.4,12.8c1.5,1.3,18.6,16,19,16
			c3.5,0,15,0.1,29.7,0.3c10.4,0.1,22.3,0.2,34.2,0.4c11.9-0.1,23.9-0.2,34.2-0.4c14.7-0.2,26.2-0.3,29.7-0.3c0.4,0,17.5-14.8,19-16
			c0-0.9-0.4-6-3.4-12.8c-1.7-3.8-3.1-6.1-4.2-7.5c-1.1-1.4-1.9-1.9-2.3-2.1l0.3-0.5c0.5,0.2,1.3,0.8,2.5,2.3
			c1.1,1.4,2.6,3.8,4.2,7.6c3.4,7.6,3.5,13.2,3.5,13.2l0,0.1l-0.1,0.1c-0.1,0-18.8,16.3-19.5,16.3c-3.7,0-15.1,0.1-29.7,0.3
			c-10.4,0.1-22.3,0.2-34.2,0.4l0-0.3l0,0.3c-11.9-0.1-23.9-0.2-34.2-0.4C67,114.2,55.6,114,51.8,114c-0.7,0-19.4-16.2-19.5-16.3
			l-0.1-0.1l0-0.1c0,0,0.1-5.5,3.5-13.2c1.7-3.8,3.1-6.2,4.2-7.6c1.2-1.5,2-2,2.5-2.3L42.7,75z"/>
		<g>
			<g>
				<path class="st7" d="M29.1,98.7c-5.4,4.8-7.8,10.5-8.1,13.5c-0.2,2.9,4,5,4.9,5.3c0.9,0.3,15.3,6.6,21.8,7.1
					c6.6,0.6,7.9-0.5,9.1-2.8c1.2-2.3,0.4-7-0.8-9.4c-1.2-2.4-10.5-14.7-11.4-15.6C41.5,93.6,32.2,96.1,29.1,98.7z"/>
				<path class="st8" d="M40.4,117.8c4.6,0,8.3-3.7,8.3-8.2c0-4.5-3.7-8.2-8.3-8.2c-4.6,0-8.3,3.7-8.3,8.2
					C32.1,114.1,35.8,117.8,40.4,117.8z"/>
			</g>
			<g>
				<path class="st7" d="M202.4,99.1c5.4,4.8,7.8,10.5,8.1,13.5c0.2,2.9-4,5-4.9,5.3c-0.9,0.3-15.3,6.6-21.8,7.1
					c-6.6,0.6-7.9-0.5-9.1-2.8c-1.2-2.3-0.4-7,0.8-9.4c1.2-2.4,10.5-14.7,11.4-15.6C190,93.9,199.3,96.4,202.4,99.1z"/>
				<path class="st8" d="M191.1,118.1c4.6,0,8.3-3.7,8.3-8.2c0-4.5-3.7-8.2-8.3-8.2c-4.6,0-8.3,3.7-8.3,8.2
					C182.8,114.4,186.6,118.1,191.1,118.1z"/>
			</g>
		</g>
		<g>
			<g>
				<path class="st9" d="M61.8,157.5c-0.6-0.1-40.3-1.9-40.3-1.9s0.7,6.9,5.6,12.8c4.9,5.9,13.6,6.7,19.7,7.3
					c6.1,0.5,27.5,1,27.1,0.9c-0.4-0.1-28.6-4.7-28.6-4.7l-3.5-14.6L61.8,157.5z"/>
				<path class="st7" d="M41.7,157.3c0,0,4,15,3.6,14.7c-0.2-0.1-20.3,0.6-20.1-14.9C25.2,156.8,41.7,157.3,41.7,157.3z"/>
				<ellipse class="st8" cx="35.6" cy="163" rx="4.2" ry="4"/>
			</g>
			<g>
				<path class="st9" d="M169.7,157.5c0.6-0.1,40.3-1.9,40.3-1.9s-0.7,6.9-5.6,12.8c-4.9,5.9-13.6,6.7-19.7,7.3
					c-6.1,0.5-27.5,1-27.1,0.9c0.4-0.1,28.6-4.7,28.6-4.7l3.5-14.6L169.7,157.5z"/>
				<path class="st7" d="M189.8,157.3c0,0-4,15-3.6,14.7c0.2-0.1,20.3,0.6,20.1-14.9C206.3,156.8,189.8,157.3,189.8,157.3z"/>
				<ellipse class="st8" cx="195.9" cy="163" rx="4.2" ry="4"/>
			</g>
		</g>
		<path class="st10" d="M58.3,141.2c-11.1-2.4-35.5-5.9-46.5-13.6c0,2.6,0,5.2,0.1,7.8c2.5,1.2,17.3,4.1,26,4.9
			C46.6,141.1,58.3,141.2,58.3,141.2z"/>
		<path class="st10" d="M219.6,127.5c-10.8,7.7-35.4,11.3-46.6,13.7c0,0,11.7-0.1,20.4-0.9c8.7-0.8,23.5-3.6,26-4.9
			c0,0,0.1,0,0.1-0.1C219.7,132.8,219.7,130.1,219.6,127.5z"/>
		<g>
			<path class="st11" d="M56.5,83.6c0,0,3.4,6.5,8.4,14c5,7.5,7.9,10.1,7.9,10.1C63.5,99.9,60.4,95,55.6,84.1L56.5,83.6z"/>
			<path class="st11" d="M175,83.6c0,0-3.4,6.5-8.4,14c-5,7.5-7.9,10.1-7.9,10.1c9.4-7.8,12.4-12.7,17.3-23.6L175,83.6z"/>
		</g>
		<path class="st12" d="M93.4,40.8L130.7,78l59.3,0.7c0,0,2.9-0.1,2.9-0.8c0-0.7-22.1-31.4-24.2-33.5
			C165.1,40.9,123.6,39.6,93.4,40.8z"/>
	</g>
	<g>
		<g>
			<defs>
				<path id="SVGID_13_" d="M64.4,39.2c-4.1,1.1-9.7,5.6-11.5,7.7c-1.9,2.2-35.4,55.3-38.7,63.5c-3.3,8.2-2.6,31.3-0.8,41.5
					c1.8,10.2,8.1,22,10.8,24.6c2.7,2.6,3.3,3.2,4.7,3.2c1.3,0,78.9,2.3,84.9,1.8c0.8-0.1,1.5-0.1,2.1-0.2c0.6,0,1.3,0.1,2.1,0.2
					c6,0.5,83.5-1.8,84.9-1.8s2-0.6,4.7-3.2c2.7-2.6,9-14.4,10.8-24.6c1.8-10.2,2.6-33.3-0.8-41.5c-3.3-8.2-36.8-61.4-38.7-63.5
					c-1.9-2.2-7.4-6.6-11.5-7.7C154,35.6,77.1,35.7,64.4,39.2z"/>
			</defs>
			<clipPath id="SVGID_14_">
				<use xlink:href="#SVGID_13_"  style="overflow:visible;"/>
			</clipPath>
		</g>
		<g>
			<defs>
				<path id="SVGID_15_" d="M72.2,122.2h87.1c5.5,0,9.9,4.5,9.9,9.9v9.9h-107v-9.9C62.3,126.7,66.7,122.2,72.2,122.2z"/>
			</defs>
			<clipPath id="SVGID_16_">
				<use xlink:href="#SVGID_15_"  style="overflow:visible;"/>
			</clipPath>
		</g>
		<g>
			<defs>
				<path id="SVGID_17_" d="M167.7,160.6v1.3c0,7.6-6.2,13.8-13.8,13.8H80.5c-7.6,0-13.8-6.2-13.8-13.8v-1.3H167.7z"/>
			</defs>
			<clipPath id="SVGID_18_">
				<use xlink:href="#SVGID_17_"  style="overflow:visible;"/>
			</clipPath>
		</g>
	</g>
</g>
<g>
	
		<rect x="128.1" y="116.8" transform="matrix(0.8005 -0.5993 0.5993 0.8005 -51.5248 104.6396)" class="st13" width="6.6" height="25.9"/>
	<g>
		<path class="st14" d="M128.1,79.7c9.2,12.3,6.7,29.8-5.6,39L89.1,74.1C101.4,64.8,118.8,67.4,128.1,79.7z"/>
		<path class="st15" d="M89.1,74.1l33.4,44.6c-12.3,9.2-29.8,6.7-39-5.6C74.2,100.7,76.7,83.3,89.1,74.1z"/>
	</g>
</g>
<g>
	<path class="st16" d="M157.2,179.2l-28.7-38c-2.7-3.5-1.7-8.8,2.2-11.7c1.2-0.9,2.5-1.4,3.9-1.7c3.1-0.6,6.2,0.4,8.1,2.9l1.1,1.4
		l27.7,36.6c2.7,3.5,1.7,8.8-2.2,11.7C165.3,183.2,159.9,182.7,157.2,179.2z"/>
	<path class="st17" d="M134.6,127.8c3.3-5,9.4-7,12.5-7.8c-0.9,3.8-2.3,7.2-4.3,10l1.2,1.8c0.1,0,0.2,0,0.2,0l-0.1,0.1l-0.4,0.2
		l-1.1-1.4C140.8,128.2,137.7,127.2,134.6,127.8z"/>
</g>
<path class="st17" d="M139.8,180.2c-1.2-2.2-1.1-4.6,0-6.1l-1.6,0.9c-2.5,1.4-5.7,0.2-7.3-2.6c-1.3-2.4-0.8-5.1,0.9-6.8l-0.6,0.4
	c-2.8,1.5-6.3,0.5-7.8-2.3c-1.5-2.8-0.5-6.3,2.3-7.8l7.6-4.2l-0.1-0.2l-6,3.3c-2.4,1.3-5.7,0.2-7.2-2.6c-1.5-2.8-0.8-6.1,1.7-7.5
	l8.3-4.5l4.9-2.7c3.9,3.1,12,2.9,12,2.9l9.4-10.3l-6.9-10.1c3.6-0.1,8.2,0.4,12.7,2.3c1.4,0.6,2.9,1.4,4.3,2.3
	c0.8,0.5,1.6,0.9,2.2,1.2c0.1,0.1,0.3,0.1,0.4,0.2c0.9,0.5,1.4,0.8,1.4,0.8c0.2,0.3,4-2.8,4.8-1.6l16.8,24.6c0.2,0.3-1.4,1.9-2,2.3
	c-1.3,1.2-2.4,2.7-3.8,4.4c-2.5,3.2-5.7,7.1-12.1,11.5c-1.1,0.7-2.3,1.5-3.5,2.2c-0.6,0.4-1.2,0.7-1.9,1.1c-1.2,0.7-2.4,1.3-3.7,2
	c-2,1-4.1,2-6,2.9l-1.3,0.7l-11.3,6.2C144.3,184.3,141.3,183,139.8,180.2z"/>
<g>
	<path class="st18" d="M182.3,139l-9.4-13.6c-1-1.4-0.6-3.4,0.8-4.4l10.4-7.1c1.4-1,3.4-0.6,4.4,0.8l9.4,13.6l-3.5,2.4L182.3,139z"
		/>
	<path class="st19" d="M191.7,152.6l-9.4-13.6l12-8.3l3.5-2.4l9.4,13.6c1,1.4,0.6,3.4-0.8,4.4l-10.4,7.1
		C194.6,154.4,192.6,154,191.7,152.6z"/>
</g>
<path class="st17" d="M142.9,130c2-2.7,3.4-6.1,4.3-10"/>
<path class="st13" d="M78.8,116.5c11.1,14.9,32.2,17.9,47.1,6.8c14.9-11.1,17.9-32.2,6.8-47.1c-11.1-14.9-32.2-17.9-47.1-6.8
	C70.7,80.6,67.7,101.6,78.8,116.5z M89.1,74.1c12.3-9.2,29.8-6.7,39,5.6c9.2,12.3,6.7,29.8-5.6,39c-12.3,9.2-29.8,6.7-39-5.6
	C74.2,100.7,76.7,83.3,89.1,74.1z"/>
<g>
	<path class="st20" d="M199,150.3l-10.8-15.8l73.2-50.9L274,93l-13.3,17.9l-58.3,40.7C201.5,152.3,199.9,151.7,199,150.3z"/>
	<path class="st16" d="M188.1,134.5l-10.8-15.8c-1-1.4-1-3.1,0-3.7L242.9,70l17.6,13L188.1,134.5z"/>
	<polygon class="st16" points="261.3,83.7 188.1,134.5 260.5,83 	"/>
</g>
</svg>
